SplineFontDB: 3.0
FontName: FdSymbolC-Bold
FullName: FdSymbolC-Bold
FamilyName: FdSymbolC
Weight: Bold
Copyright: Copyright (c) 2012, Michael Ummels. This Font Software is licensed under the SIL Open Font License, Version 1.1.
Version: 1.008
ItalicAngle: 0
UnderlinePosition: -100
UnderlineWidth: 50
Ascent: 800
Descent: 200
InvalidEm: 0
LayerCount: 2
Layer: 0 0 "Back" 1
Layer: 1 0 "Fore" 0
UniqueID: 4818268
OS2Version: 0
OS2_WeightWidthSlopeOnly: 0
OS2_UseTypoMetrics: 0
CreationTime: 1431874012
ModificationTime: 1431874013
OS2TypoAscent: 0
OS2TypoAOffset: 1
OS2TypoDescent: 0
OS2TypoDOffset: 1
OS2TypoLinegap: 0
OS2WinAscent: 0
OS2WinAOffset: 1
OS2WinDescent: 0
OS2WinDOffset: 1
HheadAscent: 0
HheadAOffset: 1
HheadDescent: 0
HheadDOffset: 1
OS2Vendor: 'PfEd'
DEI: 91125
Encoding: Custom
UnicodeInterp: none
NameList: AGL For New Fonts
DisplaySize: -48
AntiAlias: 1
FitToEm: 0
BeginPrivate: 2
BlueValues 31 [-10 0 546 556 707 717 754 764]
OtherBlues 11 [-230 -220]
EndPrivate
BeginChars: 256 238

StartChar: arrowright
Encoding: 0 8594 0
Width: 930
Flags: W
HStem: 225 100<90 669>
LayerCount: 2
Back
Fore
SplineSet
861 275 m 1
 671 86 l 1
 601 156 l 1
 669 225 l 1
 90 225 l 1
 90 325 l 1
 669 325 l 1
 601 394 l 1
 671 464 l 1
 861 275 l 1
EndSplineSet
EndChar

StartChar: arrowup
Encoding: 1 8593 1
Width: 588
Flags: W
VStem: 244 100<-100 479>
LayerCount: 2
Back
Fore
SplineSet
294 671 m 1
 483 481 l 1
 413 411 l 1
 344 479 l 1
 344 -100 l 1
 244 -100 l 1
 244 479 l 1
 175 411 l 1
 105 481 l 1
 294 671 l 1
EndSplineSet
EndChar

StartChar: arrowleft
Encoding: 2 8592 2
Width: 930
Flags: W
HStem: 225 100<261 840>
LayerCount: 2
Back
Fore
SplineSet
69 275 m 1
 259 464 l 1
 329 394 l 1
 261 325 l 1
 840 325 l 1
 840 225 l 1
 261 225 l 1
 329 156 l 1
 259 86 l 1
 69 275 l 1
EndSplineSet
EndChar

StartChar: arrowdown
Encoding: 3 8595 3
Width: 588
Flags: W
VStem: 244 100<71 650>
LayerCount: 2
Back
Fore
SplineSet
294 -121 m 1
 105 69 l 1
 175 139 l 1
 244 71 l 1
 244 650 l 1
 344 650 l 1
 344 71 l 1
 413 139 l 1
 483 69 l 1
 294 -121 l 1
EndSplineSet
EndChar

StartChar: uni2197
Encoding: 4 8599 4
Width: 999
Flags: W
HStem: 455 100<511 609>
VStem: 679 100<287 383>
LayerCount: 2
Back
Fore
SplineSet
779 555 m 1
 779 287 l 1
 679 287 l 1
 679 383 l 1
 270 -26 l 1
 199 45 l 1
 609 455 l 1
 511 455 l 1
 511 555 l 1
 779 555 l 1
EndSplineSet
EndChar

StartChar: uni2196
Encoding: 5 8598 5
Width: 999
Flags: W
HStem: 455 100<390 487>
VStem: 220 100<287 383>
LayerCount: 2
Back
Fore
SplineSet
220 555 m 1
 487 555 l 1
 487 455 l 1
 390 455 l 1
 800 45 l 1
 729 -26 l 1
 320 383 l 1
 320 287 l 1
 220 287 l 1
 220 555 l 1
EndSplineSet
EndChar

StartChar: uni2199
Encoding: 6 8601 6
Width: 999
Flags: W
HStem: -5 100<390 487>
VStem: 220 100<167 263>
LayerCount: 2
Back
Fore
SplineSet
220 -5 m 1
 220 263 l 1
 320 263 l 1
 320 167 l 1
 729 576 l 1
 800 505 l 1
 390 95 l 1
 487 95 l 1
 487 -5 l 1
 220 -5 l 1
EndSplineSet
EndChar

StartChar: uni2198
Encoding: 7 8600 7
Width: 999
Flags: W
HStem: -5 100<511 609>
VStem: 679 100<167 263>
LayerCount: 2
Back
Fore
SplineSet
779 -5 m 1
 511 -5 l 1
 511 95 l 1
 609 95 l 1
 199 505 l 1
 270 576 l 1
 679 167 l 1
 679 263 l 1
 779 263 l 1
 779 -5 l 1
EndSplineSet
EndChar

StartChar: arrowdblright
Encoding: 8 8658 8
Width: 1080
Flags: W
HStem: 129 100<90 723> 321 100<90 723>
LayerCount: 2
Back
Fore
SplineSet
1011 275 m 1
 775 39 l 1
 704 110 l 1
 723 129 l 1
 90 129 l 1
 90 229 l 1
 823 229 l 1
 869 275 l 1
 823 321 l 1
 90 321 l 1
 90 421 l 1
 723 421 l 1
 704 440 l 1
 775 511 l 1
 1011 275 l 1
EndSplineSet
EndChar

StartChar: arrowdblup
Encoding: 9 8657 9
Width: 680
Flags: W
VStem: 194 100<-175 458> 386 100<-175 458>
LayerCount: 2
Back
Fore
SplineSet
340 746 m 1
 576 510 l 1
 505 439 l 1
 486 458 l 1
 486 -175 l 1
 386 -175 l 1
 386 558 l 1
 340 604 l 1
 294 558 l 1
 294 -175 l 1
 194 -175 l 1
 194 458 l 1
 175 439 l 1
 105 510 l 1
 340 746 l 1
EndSplineSet
EndChar

StartChar: arrowdblleft
Encoding: 10 8656 10
Width: 1080
Flags: W
HStem: 129 100<357 990> 321 100<357 990>
LayerCount: 2
Back
Fore
SplineSet
69 275 m 1
 305 511 l 1
 376 440 l 1
 357 421 l 1
 990 421 l 1
 990 321 l 1
 257 321 l 1
 211 275 l 1
 257 229 l 1
 990 229 l 1
 990 129 l 1
 357 129 l 1
 376 110 l 1
 305 39 l 1
 69 275 l 1
EndSplineSet
EndChar

StartChar: arrowdbldown
Encoding: 11 8659 11
Width: 680
Flags: W
VStem: 194 100<92 725> 386 100<92 725>
LayerCount: 2
Back
Fore
SplineSet
340 -196 m 1
 105 40 l 1
 175 111 l 1
 194 92 l 1
 194 725 l 1
 294 725 l 1
 294 -8 l 1
 340 -54 l 1
 386 -8 l 1
 386 725 l 1
 486 725 l 1
 486 92 l 1
 505 111 l 1
 576 40 l 1
 340 -196 l 1
EndSplineSet
EndChar

StartChar: uni21D7
Encoding: 12 8663 12
Width: 1170
Flags: W
HStem: -10 21G<214 254.039> 508 100<585 611 753 818>
VStem: 818 100<275 301 442 508>
LayerCount: 2
Back
Fore
SplineSet
918 608 m 1
 918 275 l 1
 818 275 l 1
 818 301 l 1
 370 -147 l 1
 300 -76 l 1
 818 442 l 1
 818 508 l 1
 753 508 l 1
 234 -10 l 1
 164 60 l 1
 611 508 l 1
 585 508 l 1
 585 608 l 1
 918 608 l 1
EndSplineSet
EndChar

StartChar: uni21D6
Encoding: 13 8662 13
Width: 1170
Flags: W
HStem: -10 21G<915.961 956.286> 508 100<352 417 559 585>
VStem: 252 100<275 301 443 508>
LayerCount: 2
Back
Fore
SplineSet
252 608 m 1
 585 608 l 1
 585 508 l 1
 559 508 l 1
 1007 60 l 1
 936 -10 l 1
 417 508 l 1
 352 508 l 1
 352 443 l 1
 871 -76 l 1
 800 -147 l 1
 352 301 l 1
 352 275 l 1
 252 275 l 1
 252 608 l 1
EndSplineSet
EndChar

StartChar: uni21D9
Encoding: 14 8665 14
Width: 1170
Flags: W
HStem: -58 100<352 417 559 585>
VStem: 252 100<42 107 249 275>
LayerCount: 2
Back
Fore
SplineSet
252 -58 m 1
 252 275 l 1
 352 275 l 1
 352 249 l 1
 800 697 l 1
 871 626 l 1
 352 107 l 1
 352 42 l 1
 417 42 l 1
 936 560 l 1
 1007 490 l 1
 559 42 l 1
 585 42 l 1
 585 -58 l 1
 252 -58 l 1
EndSplineSet
EndChar

StartChar: uni21D8
Encoding: 15 8664 15
Width: 1170
Flags: W
HStem: -58 100<585 611 753 818>
VStem: 818 100<42 108 249 275>
LayerCount: 2
Back
Fore
SplineSet
918 -58 m 1
 585 -58 l 1
 585 42 l 1
 611 42 l 1
 164 490 l 1
 234 560 l 1
 753 42 l 1
 818 42 l 1
 818 108 l 1
 300 626 l 1
 370 697 l 1
 818 249 l 1
 818 275 l 1
 918 275 l 1
 918 -58 l 1
EndSplineSet
EndChar

StartChar: arrowboth
Encoding: 16 8596 16
Width: 1080
Flags: W
HStem: 225 100<261 819>
LayerCount: 2
Back
Fore
SplineSet
69 275 m 1
 259 464 l 1
 329 394 l 1
 261 325 l 1
 819 325 l 1
 751 394 l 1
 821 464 l 1
 1011 275 l 1
 821 86 l 1
 751 156 l 1
 819 225 l 1
 261 225 l 1
 329 156 l 1
 259 86 l 1
 69 275 l 1
EndSplineSet
EndChar

StartChar: arrowupdn
Encoding: 17 8597 17
Width: 588
Flags: W
VStem: 244 100<-4 554>
LayerCount: 2
Back
Fore
SplineSet
294 -196 m 1
 105 -6 l 1
 175 64 l 1
 244 -4 l 1
 244 554 l 1
 175 486 l 1
 105 556 l 1
 294 746 l 1
 483 556 l 1
 413 486 l 1
 344 554 l 1
 344 -4 l 1
 413 64 l 1
 483 -6 l 1
 294 -196 l 1
EndSplineSet
EndChar

StartChar: uni2921
Encoding: 18 10529 18
Width: 1105
Flags: W
HStem: -58 100<390 487> 508 100<618 715>
VStem: 220 100<114 210> 785 100<340 436>
LayerCount: 2
Back
Fore
SplineSet
220 -58 m 1
 220 210 l 1
 320 210 l 1
 320 114 l 1
 715 508 l 1
 618 508 l 1
 618 608 l 1
 885 608 l 1
 885 340 l 1
 785 340 l 1
 785 436 l 1
 390 42 l 1
 487 42 l 1
 487 -58 l 1
 220 -58 l 1
EndSplineSet
EndChar

StartChar: uni2922
Encoding: 19 10530 19
Width: 1105
Flags: W
HStem: -58 100<618 715> 508 100<390 487>
VStem: 220 100<340 436> 785 100<114 210>
LayerCount: 2
Back
Fore
SplineSet
885 -58 m 1
 618 -58 l 1
 618 42 l 1
 715 42 l 1
 320 436 l 1
 320 340 l 1
 220 340 l 1
 220 608 l 1
 487 608 l 1
 487 508 l 1
 390 508 l 1
 785 114 l 1
 785 210 l 1
 885 210 l 1
 885 -58 l 1
EndSplineSet
EndChar

StartChar: arrowdblboth
Encoding: 20 8660 20
Width: 1230
Flags: W
HStem: 129 100<357 873> 321 100<357 873>
LayerCount: 2
Back
Fore
SplineSet
973 321 m 1
 257 321 l 1
 211 275 l 1
 257 229 l 1
 973 229 l 1
 1019 275 l 1
 973 321 l 1
69 275 m 1
 305 511 l 1
 376 440 l 1
 357 421 l 1
 873 421 l 1
 854 440 l 1
 925 511 l 1
 1161 275 l 1
 925 39 l 1
 854 110 l 1
 873 129 l 1
 357 129 l 1
 376 110 l 1
 305 39 l 1
 69 275 l 1
EndSplineSet
EndChar

StartChar: uni21D5
Encoding: 21 8661 21
Width: 680
Flags: W
VStem: 194 100<17 533> 386 100<17 533>
LayerCount: 2
Back
Fore
SplineSet
294 633 m 1
 294 -83 l 1
 340 -129 l 1
 386 -83 l 1
 386 633 l 1
 340 679 l 1
 294 633 l 1
340 -271 m 1
 105 -35 l 1
 175 36 l 1
 194 17 l 1
 194 533 l 1
 175 514 l 1
 105 585 l 1
 340 821 l 1
 576 585 l 1
 505 514 l 1
 486 533 l 1
 486 17 l 1
 505 36 l 1
 576 -35 l 1
 340 -271 l 1
EndSplineSet
EndChar

StartChar: sym030
Encoding: 22 -1 22
Width: 1276
Flags: W
HStem: -111 100<352 418 559 585> 561 100<691 718 858 924>
VStem: 252 100<-11 54 196 222> 924 100<328 354 495 561>
LayerCount: 2
Back
Fore
SplineSet
858 561 m 1
 352 54 l 1
 352 -11 l 1
 418 -11 l 1
 924 495 l 1
 924 561 l 1
 858 561 l 1
252 -111 m 1
 252 222 l 1
 352 222 l 1
 352 196 l 1
 718 561 l 1
 691 561 l 1
 691 661 l 1
 1024 661 l 1
 1024 328 l 1
 924 328 l 1
 924 354 l 1
 559 -11 l 1
 585 -11 l 1
 585 -111 l 1
 252 -111 l 1
EndSplineSet
EndChar

StartChar: sym031
Encoding: 23 -1 23
Width: 1276
Flags: W
HStem: -111 100<691 718 858 924> 561 100<352 418 559 585>
VStem: 252 100<328 354 496 561> 924 100<-11 55 196 222>
LayerCount: 2
Back
Fore
SplineSet
352 496 m 1
 858 -11 l 1
 924 -11 l 1
 924 55 l 1
 418 561 l 1
 352 561 l 1
 352 496 l 1
1024 -111 m 1
 691 -111 l 1
 691 -11 l 1
 718 -11 l 1
 352 354 l 1
 352 328 l 1
 252 328 l 1
 252 661 l 1
 585 661 l 1
 585 561 l 1
 559 561 l 1
 924 196 l 1
 924 222 l 1
 1024 222 l 1
 1024 -111 l 1
EndSplineSet
EndChar

StartChar: uni21A0
Encoding: 24 8608 24
Width: 1118
Flags: W
HStem: 225 100<90 622 764 857>
LayerCount: 2
Back
Fore
SplineSet
1048 275 m 1
 859 86 l 1
 788 156 l 1
 857 225 l 1
 764 225 l 1
 624 86 l 1
 554 156 l 1
 622 225 l 1
 90 225 l 1
 90 325 l 1
 622 325 l 1
 554 394 l 1
 624 464 l 1
 764 325 l 1
 857 325 l 1
 788 394 l 1
 859 464 l 1
 1048 275 l 1
EndSplineSet
EndChar

StartChar: uni219F
Encoding: 25 8607 25
Width: 588
Flags: W
HStem: 744 20G<274 314>
VStem: 244 100<-194 339 480 573>
LayerCount: 2
Back
Fore
SplineSet
294 764 m 1
 483 575 l 1
 413 504 l 1
 344 573 l 1
 344 480 l 1
 483 341 l 1
 413 270 l 1
 344 339 l 1
 344 -194 l 1
 244 -194 l 1
 244 339 l 1
 175 270 l 1
 105 341 l 1
 244 480 l 1
 244 573 l 1
 175 504 l 1
 105 575 l 1
 294 764 l 1
EndSplineSet
EndChar

StartChar: uni219E
Encoding: 26 8606 26
Width: 1118
Flags: W
HStem: 225 100<261 354 495 1028>
LayerCount: 2
Back
Fore
SplineSet
69 275 m 1
 259 464 l 1
 329 394 l 1
 261 325 l 1
 354 325 l 1
 493 464 l 1
 564 394 l 1
 495 325 l 1
 1028 325 l 1
 1028 225 l 1
 495 225 l 1
 564 156 l 1
 493 86 l 1
 354 225 l 1
 261 225 l 1
 329 156 l 1
 259 86 l 1
 69 275 l 1
EndSplineSet
EndChar

StartChar: uni21A1
Encoding: 27 8609 27
Width: 588
Flags: W
VStem: 244 100<-23 70 211 744>
LayerCount: 2
Back
Fore
SplineSet
294 -214 m 1
 105 -25 l 1
 175 46 l 1
 244 -23 l 1
 244 70 l 1
 105 209 l 1
 175 280 l 1
 244 211 l 1
 244 744 l 1
 344 744 l 1
 344 211 l 1
 413 280 l 1
 483 209 l 1
 344 70 l 1
 344 -23 l 1
 413 46 l 1
 483 -25 l 1
 294 -214 l 1
EndSplineSet
EndChar

StartChar: sym033
Encoding: 28 -1 28
Width: 1131
Flags: W
HStem: 355 100<478 575> 521 100<644 741>
VStem: 646 100<188 285> 812 100<353 451>
LayerCount: 2
Back
Fore
SplineSet
912 621 m 1
 912 353 l 1
 812 353 l 1
 812 451 l 1
 746 385 l 1
 746 188 l 1
 646 188 l 1
 646 285 l 1
 270 -92 l 1
 199 -21 l 1
 575 355 l 1
 478 355 l 1
 478 455 l 1
 675 455 l 1
 741 521 l 1
 644 521 l 1
 644 621 l 1
 912 621 l 1
EndSplineSet
EndChar

StartChar: sym032
Encoding: 29 -1 29
Width: 1131
Flags: W
HStem: 355 100<556 653> 521 100<390 487>
VStem: 220 100<353 450> 385 100<188 285>
LayerCount: 2
Back
Fore
SplineSet
220 621 m 1
 487 621 l 1
 487 521 l 1
 390 521 l 1
 456 455 l 1
 653 455 l 1
 653 355 l 1
 556 355 l 1
 933 -21 l 1
 862 -92 l 1
 485 285 l 1
 485 188 l 1
 385 188 l 1
 385 385 l 1
 320 450 l 1
 320 353 l 1
 220 353 l 1
 220 621 l 1
EndSplineSet
EndChar

StartChar: sym035
Encoding: 30 -1 30
Width: 1131
Flags: W
HStem: -71 100<390 487> 95 100<556 653>
VStem: 220 100<100 197> 385 100<265 362>
LayerCount: 2
Back
Fore
SplineSet
220 -71 m 1
 220 197 l 1
 320 197 l 1
 320 100 l 1
 385 165 l 1
 385 362 l 1
 485 362 l 1
 485 265 l 1
 862 642 l 1
 933 571 l 1
 556 195 l 1
 653 195 l 1
 653 95 l 1
 456 95 l 1
 390 29 l 1
 487 29 l 1
 487 -71 l 1
 220 -71 l 1
EndSplineSet
EndChar

StartChar: sym034
Encoding: 31 -1 31
Width: 1131
Flags: W
HStem: -71 100<644 741> 95 100<478 575>
VStem: 646 100<265 362> 812 100<99 197>
LayerCount: 2
Back
Fore
SplineSet
912 -71 m 1
 644 -71 l 1
 644 29 l 1
 741 29 l 1
 675 95 l 1
 478 95 l 1
 478 195 l 1
 575 195 l 1
 199 571 l 1
 270 642 l 1
 646 265 l 1
 646 362 l 1
 746 362 l 1
 746 165 l 1
 812 99 l 1
 812 197 l 1
 912 197 l 1
 912 -71 l 1
EndSplineSet
EndChar

StartChar: uni21A3
Encoding: 32 8611 32
Width: 930
Flags: W
HStem: 225 100<315 669>
LayerCount: 2
Back
Fore
SplineSet
861 275 m 1
 671 86 l 1
 601 156 l 1
 669 225 l 1
 315 225 l 1
 175 86 l 1
 105 156 l 1
 223 275 l 1
 105 394 l 1
 175 464 l 1
 315 325 l 1
 669 325 l 1
 601 394 l 1
 671 464 l 1
 861 275 l 1
EndSplineSet
EndChar

StartChar: sym036
Encoding: 33 -1 33
Width: 588
Flags: W
VStem: 244 100<125 479>
LayerCount: 2
Back
Fore
SplineSet
294 671 m 1
 483 481 l 1
 413 411 l 1
 344 479 l 1
 344 125 l 1
 483 -15 l 1
 413 -85 l 1
 294 33 l 1
 175 -85 l 1
 105 -15 l 1
 244 125 l 1
 244 479 l 1
 175 411 l 1
 105 481 l 1
 294 671 l 1
EndSplineSet
EndChar

StartChar: uni21A2
Encoding: 34 8610 34
Width: 930
Flags: W
HStem: 225 100<261 615>
LayerCount: 2
Back
Fore
SplineSet
69 275 m 1
 259 464 l 1
 329 394 l 1
 261 325 l 1
 615 325 l 1
 755 464 l 1
 825 394 l 1
 707 275 l 1
 825 156 l 1
 755 86 l 1
 615 225 l 1
 261 225 l 1
 329 156 l 1
 259 86 l 1
 69 275 l 1
EndSplineSet
EndChar

StartChar: sym037
Encoding: 35 -1 35
Width: 588
Flags: W
VStem: 244 100<71 425>
LayerCount: 2
Back
Fore
SplineSet
294 -121 m 1
 105 69 l 1
 175 139 l 1
 244 71 l 1
 244 425 l 1
 105 565 l 1
 175 635 l 1
 294 517 l 1
 413 635 l 1
 483 565 l 1
 344 425 l 1
 344 71 l 1
 413 139 l 1
 483 69 l 1
 294 -121 l 1
EndSplineSet
EndChar

StartChar: sym039
Encoding: 36 -1 36
Width: 999
Flags: W
HStem: 104 100<161 329> 455 100<511 609>
VStem: 329 100<-64 104> 679 100<287 383>
LayerCount: 2
Back
Fore
SplineSet
779 555 m 1
 779 287 l 1
 679 287 l 1
 679 383 l 1
 429 134 l 1
 429 -64 l 1
 329 -64 l 1
 329 104 l 1
 161 104 l 1
 161 204 l 1
 358 204 l 1
 609 455 l 1
 511 455 l 1
 511 555 l 1
 779 555 l 1
EndSplineSet
EndChar

StartChar: sym038
Encoding: 37 -1 37
Width: 999
Flags: W
HStem: 104 100<670 838> 455 100<390 487>
VStem: 220 100<287 383> 570 100<-64 104>
LayerCount: 2
Back
Fore
SplineSet
220 555 m 1
 487 555 l 1
 487 455 l 1
 390 455 l 1
 641 204 l 1
 838 204 l 1
 838 104 l 1
 670 104 l 1
 670 -64 l 1
 570 -64 l 1
 570 134 l 1
 320 383 l 1
 320 287 l 1
 220 287 l 1
 220 555 l 1
EndSplineSet
EndChar

StartChar: sym03B
Encoding: 38 -1 38
Width: 999
Flags: W
HStem: -5 100<390 487> 346 100<670 838>
VStem: 220 100<167 263> 570 100<446 614>
LayerCount: 2
Back
Fore
SplineSet
220 -5 m 1
 220 263 l 1
 320 263 l 1
 320 167 l 1
 570 416 l 1
 570 614 l 1
 670 614 l 1
 670 446 l 1
 838 446 l 1
 838 346 l 1
 641 346 l 1
 390 95 l 1
 487 95 l 1
 487 -5 l 1
 220 -5 l 1
EndSplineSet
EndChar

StartChar: sym03A
Encoding: 39 -1 39
Width: 999
Flags: W
HStem: -5 100<511 609> 346 100<161 329>
VStem: 329 100<446 614> 679 100<167 263>
LayerCount: 2
Back
Fore
SplineSet
779 -5 m 1
 511 -5 l 1
 511 95 l 1
 609 95 l 1
 358 346 l 1
 161 346 l 1
 161 446 l 1
 329 446 l 1
 329 614 l 1
 429 614 l 1
 429 416 l 1
 679 167 l 1
 679 263 l 1
 779 263 l 1
 779 -5 l 1
EndSplineSet
EndChar

StartChar: uni21A6
Encoding: 40 8614 40
Width: 930
Flags: W
HStem: 225 100<190 669>
VStem: 90 100<71 225 325 479>
LayerCount: 2
Back
Fore
SplineSet
861 275 m 1
 671 86 l 1
 601 156 l 1
 669 225 l 1
 190 225 l 1
 190 71 l 1
 90 71 l 1
 90 479 l 1
 190 479 l 1
 190 325 l 1
 669 325 l 1
 601 394 l 1
 671 464 l 1
 861 275 l 1
EndSplineSet
EndChar

StartChar: uni21A5
Encoding: 41 8613 41
Width: 588
Flags: W
HStem: -100 100<90 244 344 498>
VStem: 244 100<0 479>
LayerCount: 2
Back
Fore
SplineSet
294 671 m 1
 483 481 l 1
 413 411 l 1
 344 479 l 1
 344 0 l 1
 498 0 l 1
 498 -100 l 1
 90 -100 l 1
 90 0 l 1
 244 0 l 1
 244 479 l 1
 175 411 l 1
 105 481 l 1
 294 671 l 1
EndSplineSet
EndChar

StartChar: uni21A4
Encoding: 42 8612 42
Width: 930
Flags: W
HStem: 225 100<261 740>
VStem: 740 100<71 225 325 479>
LayerCount: 2
Back
Fore
SplineSet
69 275 m 1
 259 464 l 1
 329 394 l 1
 261 325 l 1
 740 325 l 1
 740 479 l 1
 840 479 l 1
 840 71 l 1
 740 71 l 1
 740 225 l 1
 261 225 l 1
 329 156 l 1
 259 86 l 1
 69 275 l 1
EndSplineSet
EndChar

StartChar: uni21A7
Encoding: 43 8615 43
Width: 588
Flags: W
HStem: 550 100<90 244 344 498>
VStem: 244 100<71 550>
LayerCount: 2
Back
Fore
SplineSet
294 -121 m 1
 105 69 l 1
 175 139 l 1
 244 71 l 1
 244 550 l 1
 90 550 l 1
 90 650 l 1
 498 650 l 1
 498 550 l 1
 344 550 l 1
 344 71 l 1
 413 139 l 1
 483 69 l 1
 294 -121 l 1
EndSplineSet
EndChar

StartChar: uni2907
Encoding: 44 10503 44
Width: 1080
Flags: W
HStem: 129 100<190 723> 321 100<190 723>
VStem: 90 100<25 129 229 321 421 525>
LayerCount: 2
Back
Fore
SplineSet
190 321 m 1
 190 229 l 1
 823 229 l 1
 869 275 l 1
 823 321 l 1
 190 321 l 1
1011 275 m 1
 775 39 l 1
 704 110 l 1
 723 129 l 1
 190 129 l 1
 190 25 l 1
 90 25 l 1
 90 525 l 1
 190 525 l 1
 190 421 l 1
 723 421 l 1
 704 440 l 1
 775 511 l 1
 1011 275 l 1
EndSplineSet
EndChar

StartChar: sym03C
Encoding: 45 -1 45
Width: 680
Flags: W
HStem: -175 100<90 194 294 386 486 590>
VStem: 194 100<-75 458> 386 100<-75 458>
LayerCount: 2
Back
Fore
SplineSet
294 -75 m 1
 386 -75 l 1
 386 558 l 1
 340 604 l 1
 294 558 l 1
 294 -75 l 1
340 746 m 1
 576 510 l 1
 505 439 l 1
 486 458 l 1
 486 -75 l 1
 590 -75 l 1
 590 -175 l 1
 90 -175 l 1
 90 -75 l 1
 194 -75 l 1
 194 458 l 1
 175 439 l 1
 105 510 l 1
 340 746 l 1
EndSplineSet
EndChar

StartChar: uni2906
Encoding: 46 10502 46
Width: 1080
Flags: W
HStem: 129 100<357 890> 321 100<357 890>
VStem: 890 100<25 129 229 321 421 525>
LayerCount: 2
Back
Fore
SplineSet
890 229 m 1
 890 321 l 1
 257 321 l 1
 211 275 l 1
 257 229 l 1
 890 229 l 1
69 275 m 1
 305 511 l 1
 376 440 l 1
 357 421 l 1
 890 421 l 1
 890 525 l 1
 990 525 l 1
 990 25 l 1
 890 25 l 1
 890 129 l 1
 357 129 l 1
 376 110 l 1
 305 39 l 1
 69 275 l 1
EndSplineSet
EndChar

StartChar: sym03D
Encoding: 47 -1 47
Width: 680
Flags: W
HStem: 625 100<90 194 294 386 486 590>
VStem: 194 100<92 625> 386 100<92 625>
LayerCount: 2
Back
Fore
SplineSet
386 625 m 1
 294 625 l 1
 294 -8 l 1
 340 -54 l 1
 386 -8 l 1
 386 625 l 1
340 -196 m 1
 105 40 l 1
 175 111 l 1
 194 92 l 1
 194 625 l 1
 90 625 l 1
 90 725 l 1
 590 725 l 1
 590 625 l 1
 486 625 l 1
 486 92 l 1
 505 111 l 1
 576 40 l 1
 340 -196 l 1
EndSplineSet
EndChar

StartChar: uni21AA
Encoding: 48 8618 48
Width: 930
Flags: W
HStem: 225 100<191.445 669> 379 100<191.445 267>
VStem: 90 100<325.995 378.005>
LayerCount: 2
Back
Fore
SplineSet
267 379 m 1
 217 379 l 2
 202 379 190 367 190 352 c 0
 190 337 202 325 217 325 c 2
 669 325 l 1
 601 394 l 1
 671 464 l 1
 861 275 l 1
 671 86 l 1
 601 156 l 1
 669 225 l 1
 217 225 l 2
 147 225 90 282 90 352 c 0
 90 422 147 479 217 479 c 2
 267 479 l 1
 267 379 l 1
EndSplineSet
EndChar

StartChar: sym03E
Encoding: 49 -1 49
Width: 588
Flags: W
HStem: -100 100<190.995 243.005>
VStem: 90 100<1.44531 77> 244 100<1.44531 479>
LayerCount: 2
Back
Fore
SplineSet
190 77 m 1
 190 27 l 2
 190 12 202 0 217 0 c 0
 232 0 244 12 244 27 c 2
 244 479 l 1
 175 411 l 1
 105 481 l 1
 294 671 l 1
 483 481 l 1
 413 411 l 1
 344 479 l 1
 344 27 l 2
 344 -43 287 -100 217 -100 c 0
 147 -100 90 -43 90 27 c 2
 90 77 l 1
 190 77 l 1
EndSplineSet
EndChar

StartChar: uni21A9.alt
Encoding: 50 -1 50
Width: 930
Flags: W
HStem: 71 100<663 738.555> 225 100<261 738.555>
VStem: 740 100<171.995 224.005>
LayerCount: 2
Back
Fore
SplineSet
663 171 m 1
 713 171 l 2
 728 171 740 183 740 198 c 0
 740 213 728 225 713 225 c 2
 261 225 l 1
 329 156 l 1
 259 86 l 1
 69 275 l 1
 259 464 l 1
 329 394 l 1
 261 325 l 1
 713 325 l 2
 783 325 840 268 840 198 c 0
 840 128 783 71 713 71 c 2
 663 71 l 1
 663 171 l 1
EndSplineSet
EndChar

StartChar: sym03F.alt
Encoding: 51 -1 51
Width: 588
Flags: W
HStem: 550 100<344.995 397.005>
VStem: 244 100<71 548.555> 398 100<473 548.555>
LayerCount: 2
Back
Fore
SplineSet
398 473 m 1
 398 523 l 2
 398 538 386 550 371 550 c 0
 356 550 344 538 344 523 c 2
 344 71 l 1
 413 139 l 1
 483 69 l 1
 294 -121 l 1
 105 69 l 1
 175 139 l 1
 244 71 l 1
 244 523 l 2
 244 593 301 650 371 650 c 0
 441 650 498 593 498 523 c 2
 498 473 l 1
 398 473 l 1
EndSplineSet
EndChar

StartChar: uni2924.alt
Encoding: 52 -1 52
Width: 999
Flags: W
HStem: 27 100<243.944 300.974> 455 100<511 609>
VStem: 142 101<128.021 187.026> 679 100<287 383>
LayerCount: 2
Back
Fore
SplineSet
243 154 m 0
 243 140 256 127 270 127 c 0
 277 127 283 129 289 135 c 2
 609 455 l 1
 511 455 l 1
 511 555 l 1
 779 555 l 1
 779 287 l 1
 679 287 l 1
 679 383 l 1
 359 64 l 2
 335 40 302 27 270 27 c 0
 238 27 204 40 180 64 c 0
 155 89 142 122 142 154 c 0
 142 186 155 219 180 244 c 2
 215 279 l 1
 286 209 l 1
 251 173 l 2
 245 168 243 161 243 154 c 0
EndSplineSet
EndChar

StartChar: uni2923
Encoding: 53 10531 53
Width: 999
Flags: W
HStem: -82 100<587.19 646.077> 455 100<390 487>
VStem: 220 100<287 383> 647 101<19.0215 75.9788>
LayerCount: 2
Back
Fore
SplineSet
620 18 m 0
 635 18 647 31 647 45 c 0
 647 52 645 59 639 64 c 2
 320 383 l 1
 320 287 l 1
 220 287 l 1
 220 555 l 1
 487 555 l 1
 487 455 l 1
 390 455 l 1
 710 135 l 2
 735 110 748 77 748 45 c 0
 748 13 735 -20 710 -45 c 0
 686 -69 652 -82 620 -82 c 0
 588 -82 555 -69 531 -45 c 2
 495 -9 l 1
 566 61 l 1
 601 26 l 2
 607 21 613 18 620 18 c 0
EndSplineSet
EndChar

StartChar: uni2926.alt
Encoding: 54 -1 54
Width: 999
Flags: W
HStem: -5 100<390 487> 423 100<698.006 754.979>
VStem: 220 100<167 263> 756 100<362.974 421.979>
LayerCount: 2
Back
Fore
SplineSet
756 396 m 0
 756 410 743 423 729 423 c 0
 722 423 716 421 710 415 c 2
 390 95 l 1
 487 95 l 1
 487 -5 l 1
 220 -5 l 1
 220 263 l 1
 320 263 l 1
 320 167 l 1
 639 486 l 2
 664 510 697 523 729 523 c 0
 761 523 794 510 819 486 c 0
 844 461 856 428 856 396 c 0
 856 364 844 331 819 306 c 2
 784 271 l 1
 713 341 l 1
 748 377 l 2
 754 382 756 389 756 396 c 0
EndSplineSet
EndChar

StartChar: uni2925
Encoding: 55 10533 55
Width: 999
Flags: W
HStem: -5 100<511 609> 532 100<352.489 411.447>
VStem: 252 100<474.021 531.117> 679 100<167 263>
LayerCount: 2
Back
Fore
SplineSet
378 532 m 0
 363 532 352 520 352 505 c 0
 352 498 354 491 359 486 c 2
 679 167 l 1
 679 263 l 1
 779 263 l 1
 779 -5 l 1
 511 -5 l 1
 511 95 l 1
 609 95 l 1
 289 415 l 2
 264 440 252 473 252 505 c 0
 252 537 264 570 289 595 c 0
 313 619 346 632 378 632 c 0
 410 632 444 619 468 595 c 2
 504 559 l 1
 433 489 l 1
 398 524 l 2
 392 529 385 532 378 532 c 0
EndSplineSet
EndChar

StartChar: uni21AA.alt
Encoding: 56 -1 56
Width: 930
Flags: W
HStem: 71 100<191.445 267> 225 100<191.445 669>
VStem: 90 100<171.995 224.005>
LayerCount: 2
Back
Fore
SplineSet
267 71 m 1
 217 71 l 2
 147 71 90 128 90 198 c 0
 90 268 147 325 217 325 c 2
 669 325 l 1
 601 394 l 1
 671 464 l 1
 861 275 l 1
 671 86 l 1
 601 156 l 1
 669 225 l 1
 217 225 l 2
 202 225 190 213 190 198 c 0
 190 183 202 171 217 171 c 2
 267 171 l 1
 267 71 l 1
EndSplineSet
EndChar

StartChar: sym03E.alt
Encoding: 57 -1 57
Width: 588
Flags: W
HStem: -100 100<344.995 397.005>
VStem: 244 100<1.44531 479> 398 100<1.44531 77>
LayerCount: 2
Back
Fore
SplineSet
498 77 m 1
 498 27 l 2
 498 -43 441 -100 371 -100 c 0
 301 -100 244 -43 244 27 c 2
 244 479 l 1
 175 411 l 1
 105 481 l 1
 294 671 l 1
 483 481 l 1
 413 411 l 1
 344 479 l 1
 344 27 l 2
 344 12 356 0 371 0 c 0
 386 0 398 12 398 27 c 2
 398 77 l 1
 498 77 l 1
EndSplineSet
EndChar

StartChar: uni21A9
Encoding: 58 8617 58
Width: 930
Flags: W
HStem: 225 100<261 738.555> 379 100<663 738.555>
VStem: 740 100<325.995 378.005>
LayerCount: 2
Back
Fore
SplineSet
663 479 m 1
 713 479 l 2
 783 479 840 422 840 352 c 0
 840 282 783 225 713 225 c 2
 261 225 l 1
 329 156 l 1
 259 86 l 1
 69 275 l 1
 259 464 l 1
 329 394 l 1
 261 325 l 1
 713 325 l 2
 728 325 740 337 740 352 c 0
 740 367 728 379 713 379 c 2
 663 379 l 1
 663 479 l 1
EndSplineSet
EndChar

StartChar: sym03F
Encoding: 59 -1 59
Width: 588
Flags: W
HStem: 550 100<190.995 243.005>
VStem: 90 100<473 548.555> 244 100<71 548.555>
LayerCount: 2
Back
Fore
SplineSet
90 473 m 1
 90 523 l 2
 90 593 147 650 217 650 c 0
 287 650 344 593 344 523 c 2
 344 71 l 1
 413 139 l 1
 483 69 l 1
 294 -121 l 1
 105 69 l 1
 175 139 l 1
 244 71 l 1
 244 523 l 2
 244 538 232 550 217 550 c 0
 202 550 190 538 190 523 c 2
 190 473 l 1
 90 473 l 1
EndSplineSet
EndChar

StartChar: uni2924
Encoding: 60 10532 60
Width: 999
Flags: W
HStem: -82 100<352.489 411.447> 455 100<511 609>
VStem: 252 100<18.883 75.9788> 679 100<287 383>
LayerCount: 2
Back
Fore
SplineSet
352 45 m 0
 352 30 363 18 378 18 c 0
 385 18 392 21 398 26 c 2
 433 61 l 1
 504 -9 l 1
 468 -45 l 2
 444 -69 410 -82 378 -82 c 0
 346 -82 313 -69 289 -45 c 0
 264 -20 252 13 252 45 c 0
 252 77 264 110 289 135 c 2
 609 455 l 1
 511 455 l 1
 511 555 l 1
 779 555 l 1
 779 287 l 1
 679 287 l 1
 679 383 l 1
 359 64 l 2
 354 59 352 52 352 45 c 0
EndSplineSet
EndChar

StartChar: uni2923.alt
Encoding: 61 -1 61
Width: 999
Flags: W
HStem: 27 100<698.006 754.979> 455 100<390 487>
VStem: 220 100<287 383> 756 100<128.021 187.026>
LayerCount: 2
Back
Fore
SplineSet
729 127 m 0
 743 127 756 140 756 154 c 0
 756 161 754 168 748 173 c 2
 713 209 l 1
 784 279 l 1
 819 244 l 2
 844 219 856 186 856 154 c 0
 856 122 844 89 819 64 c 0
 794 40 761 27 729 27 c 0
 697 27 664 40 639 64 c 2
 320 383 l 1
 320 287 l 1
 220 287 l 1
 220 555 l 1
 487 555 l 1
 487 455 l 1
 390 455 l 1
 710 135 l 2
 716 129 722 127 729 127 c 0
EndSplineSet
EndChar

StartChar: uni2926
Encoding: 62 10534 62
Width: 999
Flags: W
HStem: -5 100<390 487> 532 100<587.19 646.077>
VStem: 220 100<167 263> 647 101<474.021 530.979>
LayerCount: 2
Back
Fore
SplineSet
647 505 m 0
 647 519 635 532 620 532 c 0
 613 532 607 529 601 524 c 2
 566 489 l 1
 495 559 l 1
 531 595 l 2
 555 619 588 632 620 632 c 0
 652 632 686 619 710 595 c 0
 735 570 748 537 748 505 c 0
 748 473 735 440 710 415 c 2
 390 95 l 1
 487 95 l 1
 487 -5 l 1
 220 -5 l 1
 220 263 l 1
 320 263 l 1
 320 167 l 1
 639 486 l 2
 645 491 647 498 647 505 c 0
EndSplineSet
EndChar

StartChar: uni2925.alt
Encoding: 63 -1 63
Width: 999
Flags: W
HStem: -5 100<511 609> 423 100<243.944 300.974>
VStem: 142 101<362.974 421.979> 679 100<167 263>
LayerCount: 2
Back
Fore
SplineSet
270 423 m 0
 256 423 243 410 243 396 c 0
 243 389 245 382 251 377 c 2
 286 341 l 1
 215 271 l 1
 180 306 l 2
 155 331 142 364 142 396 c 0
 142 428 155 461 180 486 c 0
 204 510 238 523 270 523 c 0
 302 523 335 510 359 486 c 2
 679 167 l 1
 679 263 l 1
 779 263 l 1
 779 -5 l 1
 511 -5 l 1
 511 95 l 1
 609 95 l 1
 289 415 l 2
 283 421 277 423 270 423 c 0
EndSplineSet
EndChar

StartChar: uni21C0
Encoding: 64 8640 64
Width: 930
Flags: W
HStem: 225 100<90 670>
LayerCount: 2
Back
Fore
SplineSet
861 275 m 1
 847 225 l 1
 90 225 l 1
 90 325 l 1
 670 325 l 1
 576 419 l 1
 646 489 l 1
 861 275 l 1
EndSplineSet
EndChar

StartChar: uni21BF
Encoding: 65 8639 65
Width: 588
Flags: W
VStem: 244 100<-100 480>
LayerCount: 2
Back
Fore
SplineSet
294 671 m 1
 344 657 l 1
 344 -100 l 1
 244 -100 l 1
 244 480 l 1
 150 386 l 1
 80 456 l 1
 294 671 l 1
EndSplineSet
EndChar

StartChar: uni21BD
Encoding: 66 8637 66
Width: 930
Flags: W
HStem: 225 100<260 840>
LayerCount: 2
Back
Fore
SplineSet
69 275 m 1
 83 325 l 1
 840 325 l 1
 840 225 l 1
 260 225 l 1
 354 131 l 1
 284 61 l 1
 69 275 l 1
EndSplineSet
EndChar

StartChar: uni21C2
Encoding: 67 8642 67
Width: 588
Flags: W
VStem: 244 100<70 650>
LayerCount: 2
Back
Fore
SplineSet
294 -121 m 1
 244 -107 l 1
 244 650 l 1
 344 650 l 1
 344 70 l 1
 438 164 l 1
 508 94 l 1
 294 -121 l 1
EndSplineSet
EndChar

StartChar: sym041
Encoding: 68 -1 68
Width: 999
Flags: W
HStem: 455 100<476 609>
LayerCount: 2
Back
Fore
SplineSet
779 555 m 1
 805 510 l 1
 764 470 l 1
 765 469 l 1
 270 -26 l 1
 199 45 l 1
 609 455 l 1
 476 455 l 1
 476 555 l 1
 779 555 l 1
EndSplineSet
EndChar

StartChar: sym040
Encoding: 69 -1 69
Width: 999
Flags: W
VStem: 220 100<252 383 525 526>
LayerCount: 2
Back
Fore
SplineSet
220 555 m 1
 264 581 l 1
 320 526 l 1
 320 525 l 1
 800 45 l 1
 729 -26 l 1
 320 383 l 1
 320 252 l 1
 220 252 l 1
 220 555 l 1
EndSplineSet
EndChar

StartChar: sym043
Encoding: 70 -1 70
Width: 999
Flags: W
HStem: -5 100<390 523>
LayerCount: 2
Back
Fore
SplineSet
220 -5 m 1
 194 40 l 1
 234 80 l 1
 234 81 l 1
 729 576 l 1
 800 505 l 1
 390 95 l 1
 523 95 l 1
 523 -5 l 1
 220 -5 l 1
EndSplineSet
EndChar

StartChar: sym042
Encoding: 71 -1 71
Width: 999
Flags: W
VStem: 679 100<24 25 167 298>
LayerCount: 2
Back
Fore
SplineSet
779 -5 m 1
 734 -31 l 1
 679 24 l 1
 679 25 l 1
 199 505 l 1
 270 576 l 1
 679 167 l 1
 679 298 l 1
 779 298 l 1
 779 -5 l 1
EndSplineSet
EndChar

StartChar: uni21C1
Encoding: 72 8641 72
Width: 930
Flags: W
HStem: 225 100<90 670>
LayerCount: 2
Back
Fore
SplineSet
861 275 m 1
 646 61 l 1
 576 131 l 1
 670 225 l 1
 90 225 l 1
 90 325 l 1
 847 325 l 1
 861 275 l 1
EndSplineSet
EndChar

StartChar: uni21BE
Encoding: 73 8638 73
Width: 588
Flags: W
VStem: 244 100<-100 480>
LayerCount: 2
Back
Fore
SplineSet
294 671 m 1
 508 456 l 1
 438 386 l 1
 344 480 l 1
 344 -100 l 1
 244 -100 l 1
 244 657 l 1
 294 671 l 1
EndSplineSet
EndChar

StartChar: uni21BC
Encoding: 74 8636 74
Width: 930
Flags: W
HStem: 225 100<260 840>
LayerCount: 2
Back
Fore
SplineSet
69 275 m 1
 284 489 l 1
 354 419 l 1
 260 325 l 1
 840 325 l 1
 840 225 l 1
 83 225 l 1
 69 275 l 1
EndSplineSet
EndChar

StartChar: uni21C3
Encoding: 75 8643 75
Width: 588
Flags: W
VStem: 244 100<70 650>
LayerCount: 2
Back
Fore
SplineSet
294 -121 m 1
 80 94 l 1
 150 164 l 1
 244 70 l 1
 244 650 l 1
 344 650 l 1
 344 -107 l 1
 294 -121 l 1
EndSplineSet
EndChar

StartChar: sym045
Encoding: 76 -1 76
Width: 999
Flags: W
VStem: 679 100<252 383 525 526>
LayerCount: 2
Back
Fore
SplineSet
779 555 m 1
 779 252 l 1
 679 252 l 1
 679 383 l 1
 270 -26 l 1
 199 45 l 1
 679 525 l 1
 679 526 l 1
 734 581 l 1
 779 555 l 1
EndSplineSet
EndChar

StartChar: sym044
Encoding: 77 -1 77
Width: 999
Flags: W
HStem: 455 100<390 523>
LayerCount: 2
Back
Fore
SplineSet
220 555 m 1
 523 555 l 1
 523 455 l 1
 390 455 l 1
 800 45 l 1
 729 -26 l 1
 234 469 l 1
 234 470 l 1
 194 510 l 1
 220 555 l 1
EndSplineSet
EndChar

StartChar: sym047
Encoding: 78 -1 78
Width: 999
Flags: W
VStem: 220 100<24 25 167 298>
LayerCount: 2
Back
Fore
SplineSet
220 -5 m 1
 220 298 l 1
 320 298 l 1
 320 167 l 1
 729 576 l 1
 800 505 l 1
 320 25 l 1
 320 24 l 1
 264 -31 l 1
 220 -5 l 1
EndSplineSet
EndChar

StartChar: sym046
Encoding: 79 -1 79
Width: 999
Flags: W
HStem: -5 100<476 609>
LayerCount: 2
Back
Fore
SplineSet
779 -5 m 1
 476 -5 l 1
 476 95 l 1
 609 95 l 1
 199 505 l 1
 270 576 l 1
 765 81 l 1
 764 80 l 1
 805 40 l 1
 779 -5 l 1
EndSplineSet
EndChar

StartChar: uni294B
Encoding: 80 10571 80
Width: 930
Flags: W
HStem: 225 100<260 670>
LayerCount: 2
Back
Fore
SplineSet
69 275 m 1
 83 325 l 1
 670 325 l 1
 576 419 l 1
 646 489 l 1
 861 275 l 1
 847 225 l 1
 260 225 l 1
 354 131 l 1
 284 61 l 1
 69 275 l 1
EndSplineSet
EndChar

StartChar: uni294D
Encoding: 81 10573 81
Width: 588
Flags: W
VStem: 244 100<70 480>
LayerCount: 2
Back
Fore
SplineSet
294 -121 m 1
 244 -107 l 1
 244 480 l 1
 150 386 l 1
 80 456 l 1
 294 671 l 1
 344 657 l 1
 344 70 l 1
 438 164 l 1
 508 94 l 1
 294 -121 l 1
EndSplineSet
EndChar

StartChar: sym049
Encoding: 82 -1 82
Width: 999
Flags: W
HStem: -5 100<390 523> 455 100<476 609>
LayerCount: 2
Back
Fore
SplineSet
220 -5 m 1
 194 40 l 1
 234 80 l 1
 234 81 l 1
 609 455 l 1
 476 455 l 1
 476 555 l 1
 779 555 l 1
 805 510 l 1
 764 470 l 1
 765 469 l 1
 390 95 l 1
 523 95 l 1
 523 -5 l 1
 220 -5 l 1
EndSplineSet
EndChar

StartChar: sym048
Encoding: 83 -1 83
Width: 999
Flags: W
VStem: 220 100<252 383 525 526> 679 100<24 25 167 298>
LayerCount: 2
Back
Fore
SplineSet
779 -5 m 1
 734 -31 l 1
 679 24 l 1
 679 25 l 1
 320 383 l 1
 320 252 l 1
 220 252 l 1
 220 555 l 1
 264 581 l 1
 320 526 l 1
 320 525 l 1
 679 167 l 1
 679 298 l 1
 779 298 l 1
 779 -5 l 1
EndSplineSet
EndChar

StartChar: uni294A
Encoding: 84 10570 84
Width: 930
Flags: W
HStem: 225 100<260 670>
LayerCount: 2
Back
Fore
SplineSet
69 275 m 1
 284 489 l 1
 354 419 l 1
 260 325 l 1
 847 325 l 1
 861 275 l 1
 646 61 l 1
 576 131 l 1
 670 225 l 1
 83 225 l 1
 69 275 l 1
EndSplineSet
EndChar

StartChar: uni294C
Encoding: 85 10572 85
Width: 588
Flags: W
VStem: 244 100<70 480>
LayerCount: 2
Back
Fore
SplineSet
294 -121 m 1
 80 94 l 1
 150 164 l 1
 244 70 l 1
 244 657 l 1
 294 671 l 1
 508 456 l 1
 438 386 l 1
 344 480 l 1
 344 -107 l 1
 294 -121 l 1
EndSplineSet
EndChar

StartChar: sym04B
Encoding: 86 -1 86
Width: 999
Flags: W
VStem: 220 100<24 25 167 298> 679 100<252 383 525 526>
LayerCount: 2
Back
Fore
SplineSet
220 -5 m 1
 220 298 l 1
 320 298 l 1
 320 167 l 1
 679 525 l 1
 679 526 l 1
 734 581 l 1
 779 555 l 1
 779 252 l 1
 679 252 l 1
 679 383 l 1
 320 25 l 1
 320 24 l 1
 264 -31 l 1
 220 -5 l 1
EndSplineSet
EndChar

StartChar: sym04A
Encoding: 87 -1 87
Width: 999
Flags: W
HStem: -5 100<476 609> 455 100<390 523>
LayerCount: 2
Back
Fore
SplineSet
779 -5 m 1
 476 -5 l 1
 476 95 l 1
 609 95 l 1
 234 469 l 1
 234 470 l 1
 194 510 l 1
 220 555 l 1
 523 555 l 1
 523 455 l 1
 390 455 l 1
 765 81 l 1
 764 80 l 1
 805 40 l 1
 779 -5 l 1
EndSplineSet
EndChar

StartChar: uni21CC
Encoding: 88 8652 88
Width: 930
Flags: W
HStem: 129 100<260 840> 321 100<90 670>
LayerCount: 2
Back
Fore
SplineSet
861 371 m 1
 847 321 l 1
 90 321 l 1
 90 421 l 1
 670 421 l 1
 576 515 l 1
 646 586 l 1
 861 371 l 1
69 179 m 1
 83 229 l 1
 840 229 l 1
 840 129 l 1
 260 129 l 1
 354 35 l 1
 284 -36 l 1
 69 179 l 1
EndSplineSet
EndChar

StartChar: uni296E
Encoding: 89 10606 89
Width: 780
Flags: W
VStem: 244 100<-100 480> 436 100<70 650>
LayerCount: 2
Back
Fore
SplineSet
294 671 m 1
 344 657 l 1
 344 -100 l 1
 244 -100 l 1
 244 480 l 1
 150 386 l 1
 80 456 l 1
 294 671 l 1
486 -121 m 1
 436 -107 l 1
 436 650 l 1
 536 650 l 1
 536 70 l 1
 630 164 l 1
 701 94 l 1
 486 -121 l 1
EndSplineSet
EndChar

StartChar: sym04D
Encoding: 90 -1 90
Width: 1135
Flags: W
HStem: -73 100<526 659> 523 100<476 609>
LayerCount: 2
Back
Fore
SplineSet
779 623 m 1
 805 578 l 1
 270 43 l 1
 199 113 l 1
 609 523 l 1
 476 523 l 1
 476 623 l 1
 779 623 l 1
356 -73 m 1
 330 -28 l 1
 865 507 l 1
 936 437 l 1
 526 27 l 1
 659 27 l 1
 659 -73 l 1
 356 -73 l 1
EndSplineSet
EndChar

StartChar: sym04C
Encoding: 91 -1 91
Width: 1135
Flags: W
VStem: 220 100<184 315> 815 100<235 366>
LayerCount: 2
Back
Fore
SplineSet
220 487 m 1
 264 513 l 1
 800 -23 l 1
 729 -94 l 1
 320 315 l 1
 320 184 l 1
 220 184 l 1
 220 487 l 1
915 63 m 1
 871 37 l 1
 335 573 l 1
 406 644 l 1
 815 235 l 1
 815 366 l 1
 915 366 l 1
 915 63 l 1
EndSplineSet
EndChar

StartChar: uni21CB
Encoding: 92 8651 92
Width: 930
Flags: W
HStem: 129 100<90 670> 321 100<260 840>
LayerCount: 2
Back
Fore
SplineSet
861 179 m 1
 646 -36 l 1
 576 35 l 1
 670 129 l 1
 90 129 l 1
 90 229 l 1
 847 229 l 1
 861 179 l 1
69 371 m 1
 284 586 l 1
 354 515 l 1
 260 421 l 1
 840 421 l 1
 840 321 l 1
 83 321 l 1
 69 371 l 1
EndSplineSet
EndChar

StartChar: uni296F
Encoding: 93 10607 93
Width: 780
Flags: W
VStem: 244 100<70 650> 436 100<-100 480>
LayerCount: 2
Back
Fore
SplineSet
486 671 m 1
 701 456 l 1
 630 386 l 1
 536 480 l 1
 536 -100 l 1
 436 -100 l 1
 436 657 l 1
 486 671 l 1
294 -121 m 1
 80 94 l 1
 150 164 l 1
 244 70 l 1
 244 650 l 1
 344 650 l 1
 344 -107 l 1
 294 -121 l 1
EndSplineSet
EndChar

StartChar: sym04F
Encoding: 94 -1 94
Width: 1135
Flags: W
VStem: 220 100<235 366> 815 100<184 315>
LayerCount: 2
Back
Fore
SplineSet
915 487 m 1
 915 184 l 1
 815 184 l 1
 815 315 l 1
 406 -94 l 1
 335 -23 l 1
 871 513 l 1
 915 487 l 1
220 63 m 1
 220 366 l 1
 320 366 l 1
 320 235 l 1
 729 644 l 1
 800 573 l 1
 264 37 l 1
 220 63 l 1
EndSplineSet
EndChar

StartChar: sym04E
Encoding: 95 -1 95
Width: 1135
Flags: W
HStem: -73 100<476 609> 523 100<526 659>
LayerCount: 2
Back
Fore
SplineSet
356 623 m 1
 659 623 l 1
 659 523 l 1
 526 523 l 1
 936 113 l 1
 865 43 l 1
 330 578 l 1
 356 623 l 1
779 -73 m 1
 476 -73 l 1
 476 27 l 1
 609 27 l 1
 199 437 l 1
 270 507 l 1
 805 -28 l 1
 779 -73 l 1
EndSplineSet
EndChar

StartChar: uni21E2
Encoding: 96 8674 96
Width: 930
Flags: W
HStem: 225 100<90 335 498 669>
LayerCount: 2
Back
Fore
SplineSet
90 225 m 1
 90 325 l 1
 335 325 l 1
 335 225 l 1
 90 225 l 1
861 275 m 1
 671 86 l 1
 601 156 l 1
 669 225 l 1
 498 225 l 1
 498 325 l 1
 669 325 l 1
 601 394 l 1
 671 464 l 1
 861 275 l 1
EndSplineSet
EndChar

StartChar: uni21E1
Encoding: 97 8673 97
Width: 588
Flags: W
VStem: 244 100<-100 145 308 479>
LayerCount: 2
Back
Fore
SplineSet
344 -100 m 1
 244 -100 l 1
 244 145 l 1
 344 145 l 1
 344 -100 l 1
294 671 m 1
 483 481 l 1
 413 411 l 1
 344 479 l 1
 344 308 l 1
 244 308 l 1
 244 479 l 1
 175 411 l 1
 105 481 l 1
 294 671 l 1
EndSplineSet
EndChar

StartChar: uni21E0
Encoding: 98 8672 98
Width: 930
Flags: W
HStem: 225 100<261 433 595 840>
LayerCount: 2
Back
Fore
SplineSet
840 325 m 1
 840 225 l 1
 595 225 l 1
 595 325 l 1
 840 325 l 1
69 275 m 1
 259 464 l 1
 329 394 l 1
 261 325 l 1
 433 325 l 1
 433 225 l 1
 261 225 l 1
 329 156 l 1
 259 86 l 1
 69 275 l 1
EndSplineSet
EndChar

StartChar: uni21E3
Encoding: 99 8675 99
Width: 588
Flags: W
VStem: 244 100<71 242 405 650>
LayerCount: 2
Back
Fore
SplineSet
244 650 m 1
 344 650 l 1
 344 405 l 1
 244 405 l 1
 244 650 l 1
294 -121 m 1
 105 69 l 1
 175 139 l 1
 244 71 l 1
 244 242 l 1
 344 242 l 1
 344 71 l 1
 413 139 l 1
 483 69 l 1
 294 -121 l 1
EndSplineSet
EndChar

StartChar: sym051
Encoding: 100 -1 100
Width: 999
Flags: W
HStem: 455 100<511 609>
VStem: 679 100<287 383>
LayerCount: 2
Back
Fore
SplineSet
270 -26 m 1
 199 45 l 1
 372 218 l 1
 443 148 l 1
 270 -26 l 1
779 555 m 1
 779 287 l 1
 679 287 l 1
 679 383 l 1
 558 263 l 1
 487 333 l 1
 609 455 l 1
 511 455 l 1
 511 555 l 1
 779 555 l 1
EndSplineSet
EndChar

StartChar: sym050
Encoding: 101 -1 101
Width: 999
Flags: W
HStem: 455 100<390 487>
VStem: 220 100<287 383>
LayerCount: 2
Back
Fore
SplineSet
800 45 m 1
 729 -26 l 1
 556 148 l 1
 627 218 l 1
 800 45 l 1
220 555 m 1
 487 555 l 1
 487 455 l 1
 390 455 l 1
 512 333 l 1
 441 263 l 1
 320 383 l 1
 320 287 l 1
 220 287 l 1
 220 555 l 1
EndSplineSet
EndChar

StartChar: sym053
Encoding: 102 -1 102
Width: 999
Flags: W
HStem: -5 100<390 487>
VStem: 220 100<167 263>
LayerCount: 2
Back
Fore
SplineSet
729 576 m 1
 800 505 l 1
 627 332 l 1
 556 402 l 1
 729 576 l 1
220 -5 m 1
 220 263 l 1
 320 263 l 1
 320 167 l 1
 441 287 l 1
 512 217 l 1
 390 95 l 1
 487 95 l 1
 487 -5 l 1
 220 -5 l 1
EndSplineSet
EndChar

StartChar: sym052
Encoding: 103 -1 103
Width: 999
Flags: W
HStem: -5 100<511 609>
VStem: 679 100<167 263>
LayerCount: 2
Back
Fore
SplineSet
199 505 m 1
 270 576 l 1
 443 402 l 1
 372 332 l 1
 199 505 l 1
779 -5 m 1
 511 -5 l 1
 511 95 l 1
 609 95 l 1
 487 217 l 1
 558 287 l 1
 679 167 l 1
 679 263 l 1
 779 263 l 1
 779 -5 l 1
EndSplineSet
EndChar

StartChar: uni22B8
Encoding: 104 8888 104
Width: 930
Flags: W
HStem: 102 100<616.185 718.106> 225 100<90 509.203> 348 100<616.185 718.106>
VStem: 740 100<223.894 326.106>
CounterMasks: 1 e0
LayerCount: 2
Back
Fore
SplineSet
667 448 m 0
 761 448 840 369 840 275 c 0
 840 181 761 102 667 102 c 0
 588 102 521 157 501 225 c 1
 90 225 l 1
 90 325 l 1
 501 325 l 1
 521 393 588 448 667 448 c 0
594 275 m 0
 594 235 626 202 667 202 c 0
 686 202 705 210 719 223 c 0
 732 237 740 256 740 275 c 0
 740 294 732 313 719 327 c 0
 705 340 686 348 667 348 c 0
 626 348 594 315 594 275 c 0
EndSplineSet
EndChar

StartChar: uni2AEF
Encoding: 105 10991 105
Width: 588
Flags: W
HStem: 550 100<242.894 345.106>
VStem: 121 100<426.185 528.106> 244 100<-100 319.203> 367 100<426.185 528.106>
CounterMasks: 1 70
LayerCount: 2
Back
Fore
SplineSet
294 650 m 0
 388 650 467 571 467 477 c 0
 467 398 412 331 344 311 c 1
 344 -100 l 1
 244 -100 l 1
 244 311 l 1
 176 331 121 398 121 477 c 0
 121 571 200 650 294 650 c 0
294 404 m 0
 334 404 367 436 367 477 c 0
 367 496 359 515 346 529 c 0
 332 542 313 550 294 550 c 0
 275 550 256 542 242 529 c 0
 229 515 221 496 221 477 c 0
 221 436 254 404 294 404 c 0
EndSplineSet
EndChar

StartChar: uni27DC
Encoding: 106 10204 106
Width: 930
Flags: W
HStem: 102 100<211.894 313.815> 225 100<420.797 840> 348 100<211.894 313.815>
VStem: 90 100<223.894 326.106>
CounterMasks: 1 e0
LayerCount: 2
Back
Fore
SplineSet
263 448 m 0
 342 448 409 393 429 325 c 1
 840 325 l 1
 840 225 l 1
 429 225 l 1
 409 157 342 102 263 102 c 0
 169 102 90 181 90 275 c 0
 90 369 169 448 263 448 c 0
263 202 m 0
 304 202 336 235 336 275 c 0
 336 315 304 348 263 348 c 0
 244 348 225 340 211 327 c 0
 198 313 190 294 190 275 c 0
 190 256 198 237 211 223 c 0
 225 210 244 202 263 202 c 0
EndSplineSet
EndChar

StartChar: uni2AF0
Encoding: 107 10992 107
Width: 588
Flags: W
HStem: -100 100<242.894 345.106>
VStem: 121 100<21.8944 123.815> 244 100<230.797 650> 367 100<21.8944 123.815>
CounterMasks: 1 70
LayerCount: 2
Back
Fore
SplineSet
344 239 m 1
 412 219 467 152 467 73 c 0
 467 -21 388 -100 294 -100 c 0
 200 -100 121 -21 121 73 c 0
 121 152 176 219 244 239 c 1
 244 650 l 1
 344 650 l 1
 344 239 l 1
294 146 m 0
 254 146 221 114 221 73 c 0
 221 54 229 35 242 21 c 0
 256 8 275 0 294 0 c 0
 313 0 332 8 346 21 c 0
 359 35 367 54 367 73 c 0
 367 114 334 146 294 146 c 0
EndSplineSet
EndChar

StartChar: sym054
Encoding: 108 -1 108
Width: 930
Flags: W
HStem: 102 346<585.033 748.777> 225 100<90 509.203>
LayerCount: 2
Back
Fore
SplineSet
667 448 m 0x80
 761 448 840 369 840 275 c 0
 840 181 761 102 667 102 c 0x80
 588 102 521 157 501 225 c 1
 90 225 l 1
 90 325 l 1
 501 325 l 1x40
 521 393 588 448 667 448 c 0x80
EndSplineSet
EndChar

StartChar: sym056
Encoding: 109 -1 109
Width: 588
Flags: W
VStem: 121 346<395.033 558.777> 244 100<-100 319.203>
LayerCount: 2
Back
Fore
SplineSet
294 650 m 0x80
 388 650 467 571 467 477 c 0x80
 467 398 412 331 344 311 c 1
 344 -100 l 1
 244 -100 l 1
 244 311 l 1x40
 176 331 121 398 121 477 c 0
 121 571 200 650 294 650 c 0x80
EndSplineSet
EndChar

StartChar: sym055
Encoding: 110 -1 110
Width: 930
Flags: W
HStem: 102 346<181.223 344.967> 225 100<420.797 840>
LayerCount: 2
Back
Fore
SplineSet
263 448 m 0x80
 342 448 409 393 429 325 c 1
 840 325 l 1
 840 225 l 1
 429 225 l 1x40
 409 157 342 102 263 102 c 0
 169 102 90 181 90 275 c 0
 90 369 169 448 263 448 c 0x80
EndSplineSet
EndChar

StartChar: sym057
Encoding: 111 -1 111
Width: 588
Flags: W
VStem: 121 346<-8.77734 154.967> 244 100<230.797 650>
LayerCount: 2
Back
Fore
SplineSet
344 239 m 1x40
 412 219 467 152 467 73 c 0
 467 -21 388 -100 294 -100 c 0
 200 -100 121 -21 121 73 c 0x80
 121 152 176 219 244 239 c 1
 244 650 l 1
 344 650 l 1
 344 239 l 1x40
EndSplineSet
EndChar

StartChar: uni29DF
Encoding: 112 10719 112
Width: 1230
Flags: W
HStem: 102 100<211.894 313.815 916.185 1018.11> 225 100<420.797 809.203> 348 100<211.894 313.815 916.185 1018.11>
VStem: 90 100<223.894 326.106> 1040 100<223.894 326.106>
CounterMasks: 1 e0
LayerCount: 2
Back
Fore
SplineSet
967 448 m 0
 1061 448 1140 369 1140 275 c 0
 1140 181 1061 102 967 102 c 0
 888 102 821 157 801 225 c 1
 429 225 l 1
 409 157 342 102 263 102 c 0
 169 102 90 181 90 275 c 0
 90 369 169 448 263 448 c 0
 342 448 409 393 429 325 c 1
 801 325 l 1
 821 393 888 448 967 448 c 0
894 275 m 0
 894 235 926 202 967 202 c 0
 986 202 1005 210 1019 223 c 0
 1032 237 1040 256 1040 275 c 0
 1040 294 1032 313 1019 327 c 0
 1005 340 986 348 967 348 c 0
 926 348 894 315 894 275 c 0
263 202 m 0
 304 202 336 235 336 275 c 0
 336 315 304 348 263 348 c 0
 244 348 225 340 211 327 c 0
 198 313 190 294 190 275 c 0
 190 256 198 237 211 223 c 0
 225 210 244 202 263 202 c 0
EndSplineSet
EndChar

StartChar: sym058
Encoding: 113 -1 113
Width: 1230
Flags: W
HStem: 102 346<181.223 344.967 885.033 1048.78> 225 100<420.797 809.203>
LayerCount: 2
Back
Fore
SplineSet
967 448 m 0x80
 1061 448 1140 369 1140 275 c 0
 1140 181 1061 102 967 102 c 0x80
 888 102 821 157 801 225 c 1
 429 225 l 1x40
 409 157 342 102 263 102 c 0
 169 102 90 181 90 275 c 0
 90 369 169 448 263 448 c 0x80
 342 448 409 393 429 325 c 1
 801 325 l 1x40
 821 393 888 448 967 448 c 0x80
EndSplineSet
EndChar

StartChar: uni22B7
Encoding: 114 8887 114
Width: 1230
Flags: W
HStem: 102 346<181.223 344.967> 102 100<916.185 1018.11> 225 100<420.797 809.203> 348 100<916.185 1018.11>
VStem: 1040 100<223.894 326.106>
LayerCount: 2
Back
Fore
SplineSet
967 448 m 0x38
 1061 448 1140 369 1140 275 c 0
 1140 181 1061 102 967 102 c 0
 888 102 821 157 801 225 c 1
 429 225 l 1x78
 409 157 342 102 263 102 c 0
 169 102 90 181 90 275 c 0
 90 369 169 448 263 448 c 0x88
 342 448 409 393 429 325 c 1
 801 325 l 1
 821 393 888 448 967 448 c 0x38
894 275 m 0
 894 235 926 202 967 202 c 0
 986 202 1005 210 1019 223 c 0
 1032 237 1040 256 1040 275 c 0
 1040 294 1032 313 1019 327 c 0
 1005 340 986 348 967 348 c 0
 926 348 894 315 894 275 c 0
EndSplineSet
EndChar

StartChar: uni22B6
Encoding: 115 8886 115
Width: 1230
Flags: W
HStem: 102 346<885.033 1048.78> 102 100<211.894 313.815> 225 100<420.797 809.203> 348 100<211.894 313.815>
VStem: 90 100<223.894 326.106>
LayerCount: 2
Back
Fore
SplineSet
967 448 m 0x88
 1061 448 1140 369 1140 275 c 0
 1140 181 1061 102 967 102 c 0x88
 888 102 821 157 801 225 c 1
 429 225 l 1
 409 157 342 102 263 102 c 0
 169 102 90 181 90 275 c 0
 90 369 169 448 263 448 c 0
 342 448 409 393 429 325 c 1
 801 325 l 1x78
 821 393 888 448 967 448 c 0x88
263 202 m 0x58
 304 202 336 235 336 275 c 0
 336 315 304 348 263 348 c 0
 244 348 225 340 211 327 c 0
 198 313 190 294 190 275 c 0
 190 256 198 237 211 223 c 0
 225 210 244 202 263 202 c 0x58
EndSplineSet
EndChar

StartChar: sym05A
Encoding: 116 -1 116
Width: 930
Flags: W
HStem: 22 100<90 363.48> 225 100<90 409 506.918 840> 428 100<90 363.48>
VStem: 409 102<174.639 225 325 375.361>
CounterMasks: 1 e0
LayerCount: 2
Back
Fore
SplineSet
90 122 m 1
 306 122 l 2
 361 122 396 168 409 225 c 1
 90 225 l 1
 90 325 l 1
 409 325 l 1
 396 382 361 428 306 428 c 2
 90 428 l 1
 90 528 l 1
 306 528 l 2
 414 528 493 436 511 325 c 1
 840 325 l 1
 840 225 l 1
 511 225 l 1
 493 114 414 22 306 22 c 2
 90 22 l 1
 90 122 l 1
EndSplineSet
EndChar

StartChar: uni22D4
Encoding: 117 8916 117
Width: 685
Flags: W
HStem: 219 102<242.305 293 393 443.296>
VStem: 90 100<-100 173.48> 293 100<-100 219 316.918 650> 495 100<-100 173.48>
LayerCount: 2
Back
Fore
SplineSet
495 -100 m 1
 495 116 l 2
 495 171 450 206 393 219 c 1
 393 -100 l 1
 293 -100 l 1
 293 219 l 1
 236 206 190 171 190 116 c 2
 190 -100 l 1
 90 -100 l 1
 90 116 l 2
 90 224 181 303 293 321 c 1
 293 650 l 1
 393 650 l 1
 393 321 l 1
 504 303 595 224 595 116 c 2
 595 -100 l 1
 495 -100 l 1
EndSplineSet
EndChar

StartChar: sym05B
Encoding: 118 -1 118
Width: 930
Flags: W
HStem: 22 100<566.52 840> 225 100<90 423.082 521 840> 428 100<566.52 840>
VStem: 419 102<174.639 225 325 375.361>
CounterMasks: 1 e0
LayerCount: 2
Back
Fore
SplineSet
840 428 m 1
 624 428 l 2
 569 428 534 382 521 325 c 1
 840 325 l 1
 840 225 l 1
 521 225 l 1
 534 168 569 122 624 122 c 2
 840 122 l 1
 840 22 l 1
 624 22 l 2
 516 22 437 114 419 225 c 1
 90 225 l 1
 90 325 l 1
 419 325 l 1
 437 436 516 528 624 528 c 2
 840 528 l 1
 840 428 l 1
EndSplineSet
EndChar

StartChar: sym059
Encoding: 119 -1 119
Width: 685
Flags: W
HStem: 229 102<242.305 293 393 443.296>
VStem: 90 100<376.52 650> 293 100<-100 233.082 331 650> 495 100<376.52 650>
LayerCount: 2
Back
Fore
SplineSet
190 650 m 1
 190 434 l 2
 190 379 236 344 293 331 c 1
 293 650 l 1
 393 650 l 1
 393 331 l 1
 450 344 495 379 495 434 c 2
 495 650 l 1
 595 650 l 1
 595 434 l 2
 595 326 504 247 393 229 c 1
 393 -100 l 1
 293 -100 l 1
 293 229 l 1
 181 247 90 326 90 434 c 2
 90 650 l 1
 190 650 l 1
EndSplineSet
EndChar

StartChar: uni21C9
Encoding: 120 8649 120
Width: 930
Flags: W
HStem: 71 100<90 669> 379 100<90 669>
LayerCount: 2
Back
Fore
SplineSet
861 121 m 1
 671 -68 l 1
 601 2 l 1
 669 71 l 1
 90 71 l 1
 90 171 l 1
 669 171 l 1
 601 240 l 1
 636 275 l 1
 601 310 l 1
 669 379 l 1
 90 379 l 1
 90 479 l 1
 669 479 l 1
 601 548 l 1
 671 618 l 1
 861 429 l 1
 706 275 l 1
 861 121 l 1
EndSplineSet
EndChar

StartChar: uni21C8
Encoding: 121 8648 121
Width: 896
Flags: W
VStem: 244 100<-100 479> 552 100<-100 479>
LayerCount: 2
Back
Fore
SplineSet
602 671 m 1
 791 481 l 1
 721 411 l 1
 652 479 l 1
 652 -100 l 1
 552 -100 l 1
 552 479 l 1
 483 411 l 1
 448 446 l 1
 413 411 l 1
 344 479 l 1
 344 -100 l 1
 244 -100 l 1
 244 479 l 1
 175 411 l 1
 105 481 l 1
 294 671 l 1
 448 516 l 1
 602 671 l 1
EndSplineSet
EndChar

StartChar: uni21C7
Encoding: 122 8647 122
Width: 930
Flags: W
HStem: 71 100<261 840> 379 100<261 840>
LayerCount: 2
Back
Fore
SplineSet
69 429 m 1
 259 618 l 1
 329 548 l 1
 261 479 l 1
 840 479 l 1
 840 379 l 1
 261 379 l 1
 329 310 l 1
 294 275 l 1
 329 240 l 1
 261 171 l 1
 840 171 l 1
 840 71 l 1
 261 71 l 1
 329 2 l 1
 259 -68 l 1
 69 121 l 1
 224 275 l 1
 69 429 l 1
EndSplineSet
EndChar

StartChar: uni21CA
Encoding: 123 8650 123
Width: 896
Flags: W
VStem: 244 100<71 650> 552 100<71 650>
LayerCount: 2
Back
Fore
SplineSet
294 -121 m 1
 105 69 l 1
 175 139 l 1
 244 71 l 1
 244 650 l 1
 344 650 l 1
 344 71 l 1
 413 139 l 1
 448 104 l 1
 483 139 l 1
 552 71 l 1
 552 650 l 1
 652 650 l 1
 652 71 l 1
 721 139 l 1
 791 69 l 1
 602 -121 l 1
 448 34 l 1
 294 -121 l 1
EndSplineSet
EndChar

StartChar: sym05D
Encoding: 124 -1 124
Width: 1217
Flags: W
HStem: 346 100<779 827> 564 100<511 609>
VStem: 679 100<446 492> 897 100<178 276>
LayerCount: 2
Back
Fore
SplineSet
997 446 m 1
 997 178 l 1
 897 178 l 1
 897 276 l 1
 487 -134 l 1
 417 -64 l 1
 827 346 l 1
 729 346 l 1
 729 396 l 1
 679 396 l 1
 679 492 l 1
 270 83 l 1
 199 154 l 1
 609 564 l 1
 511 564 l 1
 511 664 l 1
 779 664 l 1
 779 446 l 1
 997 446 l 1
EndSplineSet
EndChar

StartChar: sym05C
Encoding: 125 -1 125
Width: 1217
Flags: W
HStem: 346 100<390 437> 564 100<608 705>
VStem: 220 100<178 275> 437 100<446 493>
LayerCount: 2
Back
Fore
SplineSet
437 664 m 1
 705 664 l 1
 705 564 l 1
 608 564 l 1
 1018 154 l 1
 947 83 l 1
 537 493 l 1
 537 396 l 1
 487 396 l 1
 487 346 l 1
 390 346 l 1
 800 -64 l 1
 729 -134 l 1
 320 275 l 1
 320 178 l 1
 220 178 l 1
 220 446 l 1
 437 446 l 1
 437 664 l 1
EndSplineSet
EndChar

StartChar: sym05F
Encoding: 126 -1 126
Width: 1217
Flags: W
HStem: -114 100<608 705> 104 100<390 437>
VStem: 220 100<275 372> 437 100<57 104>
LayerCount: 2
Back
Fore
SplineSet
220 104 m 1
 220 372 l 1
 320 372 l 1
 320 275 l 1
 729 684 l 1
 800 614 l 1
 390 204 l 1
 487 204 l 1
 487 154 l 1
 537 154 l 1
 537 57 l 1
 947 467 l 1
 1018 396 l 1
 608 -14 l 1
 705 -14 l 1
 705 -114 l 1
 437 -114 l 1
 437 104 l 1
 220 104 l 1
EndSplineSet
EndChar

StartChar: sym05E
Encoding: 127 -1 127
Width: 1217
Flags: W
HStem: -114 100<511 609> 104 100<779 827>
VStem: 679 100<58 104> 897 100<274 372>
LayerCount: 2
Back
Fore
SplineSet
779 -114 m 1
 511 -114 l 1
 511 -14 l 1
 609 -14 l 1
 199 396 l 1
 270 467 l 1
 679 58 l 1
 679 154 l 1
 729 154 l 1
 729 204 l 1
 827 204 l 1
 417 614 l 1
 487 684 l 1
 897 274 l 1
 897 372 l 1
 997 372 l 1
 997 104 l 1
 779 104 l 1
 779 -114 l 1
EndSplineSet
EndChar

StartChar: uni21C4
Encoding: 128 8644 128
Width: 930
Flags: W
HStem: 71 100<261 840> 379 100<90 669>
LayerCount: 2
Back
Fore
SplineSet
861 429 m 1
 671 240 l 1
 601 310 l 1
 669 379 l 1
 90 379 l 1
 90 479 l 1
 669 479 l 1
 601 548 l 1
 671 618 l 1
 861 429 l 1
69 121 m 1
 259 310 l 1
 329 240 l 1
 261 171 l 1
 840 171 l 1
 840 71 l 1
 261 71 l 1
 329 2 l 1
 259 -68 l 1
 69 121 l 1
EndSplineSet
EndChar

StartChar: uni21C5
Encoding: 129 8645 129
Width: 896
Flags: W
VStem: 244 100<-100 479> 552 100<71 650>
LayerCount: 2
Back
Fore
SplineSet
294 671 m 1
 483 481 l 1
 413 411 l 1
 344 479 l 1
 344 -100 l 1
 244 -100 l 1
 244 479 l 1
 175 411 l 1
 105 481 l 1
 294 671 l 1
602 -121 m 1
 413 69 l 1
 483 139 l 1
 552 71 l 1
 552 650 l 1
 652 650 l 1
 652 71 l 1
 721 139 l 1
 791 69 l 1
 602 -121 l 1
EndSplineSet
EndChar

StartChar: sym061
Encoding: 130 -1 130
Width: 1217
Flags: W
HStem: -114 100<608 705> 564 100<511 609>
VStem: 437 100<57 154> 679 100<396 492>
LayerCount: 2
Back
Fore
SplineSet
779 664 m 1
 779 396 l 1
 679 396 l 1
 679 492 l 1
 270 83 l 1
 199 154 l 1
 609 564 l 1
 511 564 l 1
 511 664 l 1
 779 664 l 1
437 -114 m 1
 437 154 l 1
 537 154 l 1
 537 57 l 1
 947 467 l 1
 1018 396 l 1
 608 -14 l 1
 705 -14 l 1
 705 -114 l 1
 437 -114 l 1
EndSplineSet
EndChar

StartChar: sym060
Encoding: 131 -1 131
Width: 1217
Flags: W
HStem: 104 100<729 827> 346 100<390 487>
VStem: 220 100<178 275> 897 100<274 372>
LayerCount: 2
Back
Fore
SplineSet
220 446 m 1
 487 446 l 1
 487 346 l 1
 390 346 l 1
 800 -64 l 1
 729 -134 l 1
 320 275 l 1
 320 178 l 1
 220 178 l 1
 220 446 l 1
997 104 m 1
 729 104 l 1
 729 204 l 1
 827 204 l 1
 417 614 l 1
 487 684 l 1
 897 274 l 1
 897 372 l 1
 997 372 l 1
 997 104 l 1
EndSplineSet
EndChar

StartChar: uni21C6
Encoding: 132 8646 132
Width: 930
Flags: W
HStem: 71 100<90 669> 379 100<261 840>
LayerCount: 2
Back
Fore
SplineSet
861 121 m 1
 671 -68 l 1
 601 2 l 1
 669 71 l 1
 90 71 l 1
 90 171 l 1
 669 171 l 1
 601 240 l 1
 671 310 l 1
 861 121 l 1
69 429 m 1
 259 618 l 1
 329 548 l 1
 261 479 l 1
 840 479 l 1
 840 379 l 1
 261 379 l 1
 329 310 l 1
 259 240 l 1
 69 429 l 1
EndSplineSet
EndChar

StartChar: uni21F5
Encoding: 133 8693 133
Width: 896
Flags: W
VStem: 244 100<71 650> 552 100<-100 479>
LayerCount: 2
Back
Fore
SplineSet
602 671 m 1
 791 481 l 1
 721 411 l 1
 652 479 l 1
 652 -100 l 1
 552 -100 l 1
 552 479 l 1
 483 411 l 1
 413 481 l 1
 602 671 l 1
294 -121 m 1
 105 69 l 1
 175 139 l 1
 244 71 l 1
 244 650 l 1
 344 650 l 1
 344 71 l 1
 413 139 l 1
 483 69 l 1
 294 -121 l 1
EndSplineSet
EndChar

StartChar: sym063
Encoding: 134 -1 134
Width: 1217
Flags: W
HStem: 104 100<390 487> 346 100<729 827>
VStem: 220 100<275 372> 897 100<178 276>
LayerCount: 2
Back
Fore
SplineSet
997 446 m 1
 997 178 l 1
 897 178 l 1
 897 276 l 1
 487 -134 l 1
 417 -64 l 1
 827 346 l 1
 729 346 l 1
 729 446 l 1
 997 446 l 1
220 104 m 1
 220 372 l 1
 320 372 l 1
 320 275 l 1
 729 684 l 1
 800 614 l 1
 390 204 l 1
 487 204 l 1
 487 104 l 1
 220 104 l 1
EndSplineSet
EndChar

StartChar: sym062
Encoding: 135 -1 135
Width: 1217
Flags: W
HStem: -114 100<511 609> 564 100<608 705>
VStem: 437 100<396 493> 679 100<58 154>
LayerCount: 2
Back
Fore
SplineSet
437 664 m 1
 705 664 l 1
 705 564 l 1
 608 564 l 1
 1018 154 l 1
 947 83 l 1
 537 493 l 1
 537 396 l 1
 437 396 l 1
 437 664 l 1
779 -114 m 1
 511 -114 l 1
 511 -14 l 1
 609 -14 l 1
 199 396 l 1
 270 467 l 1
 679 58 l 1
 679 154 l 1
 779 154 l 1
 779 -114 l 1
EndSplineSet
EndChar

StartChar: uni219D
Encoding: 136 8605 136
Width: 930
Flags: W
HStem: 148 100<460.606 535.374> 225 100<613.179 669> 302 100<234 326.023>
LayerCount: 2
Back
Fore
SplineSet
861 275 m 1x40
 671 86 l 1
 601 156 l 1
 669 225 l 1
 646 225 l 2x40
 644 225 617 206 602 196 c 0
 571 174 539 148 501 148 c 0
 438 148 388 194 352 246 c 0
 334 272 315 302 284 302 c 0
 234 302 210 249 181 208 c 1
 99 265 l 1
 146 333 203 402 284 402 c 0
 347 402 397 356 434 304 c 0
 452 278 470 248 501 248 c 0xa0
 520 248 530 267 545 277 c 0
 576 299 613 325 646 325 c 2
 669 325 l 1
 601 394 l 1
 671 464 l 1
 861 275 l 1x40
EndSplineSet
EndChar

StartChar: sym064.alt
Encoding: 137 -1 137
Width: 588
Flags: W
VStem: 167 100<43.9998 136.023> 244 100<423.179 479> 321 100<270.606 345.374>
LayerCount: 2
Back
Fore
SplineSet
294 671 m 1x40
 483 481 l 1
 413 411 l 1
 344 479 l 1
 344 456 l 2x40
 344 454 363 427 373 412 c 0
 395 381 421 349 421 311 c 0
 421 248 375 198 323 162 c 0
 297 144 267 125 267 94 c 0
 267 44 320 20 361 -9 c 1
 304 -91 l 1
 236 -44 167 13 167 94 c 0
 167 157 213 207 265 244 c 0
 291 262 321 280 321 311 c 0xa0
 321 330 302 340 292 355 c 0
 270 386 244 423 244 456 c 2
 244 479 l 1
 175 411 l 1
 105 481 l 1
 294 671 l 1x40
EndSplineSet
EndChar

StartChar: uni219C.alt
Encoding: 138 -1 138
Width: 930
Flags: W
HStem: 148 100<603.977 696> 225 100<261 316.821> 302 100<394.626 469.394>
LayerCount: 2
Back
Fore
SplineSet
69 275 m 1x40
 259 464 l 1
 329 394 l 1
 261 325 l 1
 284 325 l 2x40
 286 325 313 344 328 354 c 0
 359 376 391 402 429 402 c 0
 492 402 542 356 578 304 c 0
 596 278 615 248 646 248 c 0
 696 248 720 301 749 342 c 1
 831 285 l 1
 784 217 727 148 646 148 c 0
 583 148 533 194 496 246 c 0
 478 272 460 302 429 302 c 0xa0
 410 302 400 283 385 273 c 0
 354 251 317 225 284 225 c 2
 261 225 l 1
 329 156 l 1
 259 86 l 1
 69 275 l 1x40
EndSplineSet
EndChar

StartChar: sym065
Encoding: 139 -1 139
Width: 588
Flags: W
VStem: 167 100<204.626 279.394> 244 100<71 126.821> 321 100<413.977 506>
LayerCount: 2
Back
Fore
SplineSet
294 -121 m 1x40
 105 69 l 1
 175 139 l 1
 244 71 l 1
 244 94 l 2x40
 244 96 225 123 215 138 c 0
 193 169 167 201 167 239 c 0
 167 302 213 352 265 388 c 0
 291 406 321 425 321 456 c 0
 321 506 268 530 227 559 c 1
 284 641 l 1
 352 594 421 537 421 456 c 0
 421 393 375 343 323 306 c 0
 297 288 267 270 267 239 c 0xa0
 267 220 286 210 296 195 c 0
 318 164 344 127 344 94 c 2
 344 71 l 1
 413 139 l 1
 483 69 l 1
 294 -121 l 1x40
EndSplineSet
EndChar

StartChar: uni219D.alt
Encoding: 140 -1 140
Width: 930
Flags: W
HStem: 148 100<234 326.023> 225 100<613.179 669> 302 100<460.606 535.374>
LayerCount: 2
Back
Fore
SplineSet
861 275 m 1x40
 671 86 l 1
 601 156 l 1
 669 225 l 1
 646 225 l 2x40
 613 225 576 251 545 273 c 0
 530 283 520 302 501 302 c 0
 470 302 452 272 434 246 c 0
 397 194 347 148 284 148 c 0
 203 148 146 217 99 285 c 1
 181 342 l 1
 210 301 234 248 284 248 c 0
 315 248 334 278 352 304 c 0
 388 356 438 402 501 402 c 0xa0
 539 402 571 376 602 354 c 0
 617 344 644 325 646 325 c 2
 669 325 l 1
 601 394 l 1
 671 464 l 1
 861 275 l 1x40
EndSplineSet
EndChar

StartChar: sym064
Encoding: 141 -1 141
Width: 588
Flags: W
VStem: 167 100<270.606 345.374> 244 100<423.179 479> 321 100<43.9998 136.023>
LayerCount: 2
Back
Fore
SplineSet
294 671 m 1x40
 483 481 l 1
 413 411 l 1
 344 479 l 1
 344 456 l 2x40
 344 423 318 386 296 355 c 0
 286 340 267 330 267 311 c 0
 267 280 297 262 323 244 c 0
 375 207 421 157 421 94 c 0
 421 13 352 -44 284 -91 c 1
 227 -9 l 1
 268 20 321 44 321 94 c 0
 321 125 291 144 265 162 c 0
 213 198 167 248 167 311 c 0xa0
 167 349 193 381 215 412 c 0
 225 427 244 454 244 456 c 2
 244 479 l 1
 175 411 l 1
 105 481 l 1
 294 671 l 1x40
EndSplineSet
EndChar

StartChar: uni219C
Encoding: 142 8604 142
Width: 930
Flags: W
HStem: 148 100<394.626 469.394> 225 100<261 316.821> 302 100<603.977 696>
LayerCount: 2
Back
Fore
SplineSet
69 275 m 1x40
 259 464 l 1
 329 394 l 1
 261 325 l 1
 284 325 l 2x40
 317 325 354 299 385 277 c 0
 400 267 410 248 429 248 c 0
 460 248 478 278 496 304 c 0
 533 356 583 402 646 402 c 0
 727 402 784 333 831 265 c 1
 749 208 l 1
 720 249 696 302 646 302 c 0
 615 302 596 272 578 246 c 0
 542 194 492 148 429 148 c 0xa0
 391 148 359 174 328 196 c 0
 313 206 286 225 284 225 c 2
 261 225 l 1
 329 156 l 1
 259 86 l 1
 69 275 l 1x40
EndSplineSet
EndChar

StartChar: sym065.alt
Encoding: 143 -1 143
Width: 588
Flags: W
VStem: 167 100<413.977 506> 244 100<71 126.821> 321 100<204.626 279.394>
LayerCount: 2
Back
Fore
SplineSet
294 -121 m 1x40
 105 69 l 1
 175 139 l 1
 244 71 l 1
 244 94 l 2x40
 244 127 270 164 292 195 c 0
 302 210 321 220 321 239 c 0
 321 270 291 288 265 306 c 0
 213 343 167 393 167 456 c 0
 167 537 236 594 304 641 c 1
 361 559 l 1
 320 530 267 506 267 456 c 0
 267 425 297 406 323 388 c 0
 375 352 421 302 421 239 c 0xa0
 421 201 395 169 373 138 c 0
 363 123 344 96 344 94 c 2
 344 71 l 1
 413 139 l 1
 483 69 l 1
 294 -121 l 1x40
EndSplineSet
EndChar

StartChar: uni21AD
Encoding: 144 8621 144
Width: 1080
Flags: W
HStem: 148 100<606.977 681.549> 225 100<261 319.493 760.507 819> 302 100<396.39 473.023>
LayerCount: 2
Back
Fore
SplineSet
1011 275 m 1x40
 821 86 l 1
 751 156 l 1
 819 225 l 1
 795 225 l 2x40
 776 225 765 206 751 196 c 0
 719 174 683 148 649 148 c 0
 586 148 536 194 499 246 c 0
 481 272 462 302 431 302 c 0xa0
 412 302 402 283 387 273 c 0
 355 251 324 225 285 225 c 2
 261 225 l 1
 329 156 l 1
 259 86 l 1
 69 275 l 1
 259 464 l 1
 329 394 l 1
 261 325 l 1
 285 325 l 2x40
 304 325 315 344 329 354 c 0
 361 376 392 402 431 402 c 0
 494 402 544 356 581 304 c 0
 599 278 618 248 649 248 c 0xa0
 651 248 678 267 693 277 c 0
 725 299 756 325 795 325 c 2
 819 325 l 1
 751 394 l 1
 821 464 l 1
 1011 275 l 1x40
EndSplineSet
EndChar

StartChar: sym066.alt
Encoding: 145 -1 145
Width: 588
Flags: W
VStem: 167 100<131.39 208.023> 244 100<-4 54.4934 495.507 554> 321 100<341.977 416.549>
LayerCount: 2
Back
Fore
SplineSet
294 746 m 1x40
 483 556 l 1
 413 486 l 1
 344 554 l 1
 344 530 l 2x40
 344 511 363 500 373 486 c 0
 395 454 421 418 421 384 c 0
 421 321 375 271 323 234 c 0
 297 216 267 197 267 166 c 0xa0
 267 147 286 137 296 122 c 0
 318 90 344 59 344 20 c 2
 344 -4 l 1
 413 64 l 1
 483 -6 l 1
 294 -196 l 1
 105 -6 l 1
 175 64 l 1
 244 -4 l 1
 244 20 l 2x40
 244 39 225 50 215 64 c 0
 193 96 167 127 167 166 c 0
 167 229 213 279 265 316 c 0
 291 334 321 353 321 384 c 0xa0
 321 386 302 413 292 428 c 0
 270 460 244 491 244 530 c 2
 244 554 l 1
 175 486 l 1
 105 556 l 1
 294 746 l 1x40
EndSplineSet
EndChar

StartChar: uni21AD.alt
Encoding: 146 -1 146
Width: 1080
Flags: W
HStem: 148 100<396.39 473.023> 225 100<261 319.493 760.507 819> 302 100<606.977 681.549>
LayerCount: 2
Back
Fore
SplineSet
1011 275 m 1x40
 821 86 l 1
 751 156 l 1
 819 225 l 1
 795 225 l 2x40
 756 225 725 251 693 273 c 0
 678 283 651 302 649 302 c 0
 618 302 599 272 581 246 c 0
 544 194 494 148 431 148 c 0xa0
 392 148 361 174 329 196 c 0
 315 206 304 225 285 225 c 2
 261 225 l 1
 329 156 l 1
 259 86 l 1
 69 275 l 1
 259 464 l 1
 329 394 l 1
 261 325 l 1
 285 325 l 2x40
 324 325 355 299 387 277 c 0
 402 267 412 248 431 248 c 0
 462 248 481 278 499 304 c 0
 536 356 586 402 649 402 c 0xa0
 683 402 719 376 751 354 c 0
 765 344 776 325 795 325 c 2
 819 325 l 1
 751 394 l 1
 821 464 l 1
 1011 275 l 1x40
EndSplineSet
EndChar

StartChar: sym066
Encoding: 147 -1 147
Width: 588
Flags: W
VStem: 167 100<341.977 416.549> 244 100<-4 54.4934 495.507 554> 321 100<131.39 208.023>
LayerCount: 2
Back
Fore
SplineSet
294 746 m 1x40
 483 556 l 1
 413 486 l 1
 344 554 l 1
 344 530 l 2x40
 344 491 318 460 296 428 c 0
 286 413 267 386 267 384 c 0
 267 353 297 334 323 316 c 0
 375 279 421 229 421 166 c 0xa0
 421 127 395 96 373 64 c 0
 363 50 344 39 344 20 c 2
 344 -4 l 1
 413 64 l 1
 483 -6 l 1
 294 -196 l 1
 105 -6 l 1
 175 64 l 1
 244 -4 l 1
 244 20 l 2x40
 244 59 270 90 292 122 c 0
 302 137 321 147 321 166 c 0
 321 197 291 216 265 234 c 0
 213 271 167 321 167 384 c 0xa0
 167 418 193 454 215 486 c 0
 225 500 244 511 244 530 c 2
 244 554 l 1
 175 486 l 1
 105 556 l 1
 294 746 l 1x40
EndSplineSet
EndChar

StartChar: sym069
Encoding: 148 -1 148
Width: 930
Flags: W
HStem: 302 100<317.53 525.552>
LayerCount: 2
Back
Fore
SplineSet
417 402 m 0
 540 402 640 343 719 258 c 1
 727 342 l 1
 826 334 l 1
 803 67 l 1
 536 90 l 1
 545 190 l 1
 655 180 l 1
 595 250 518 302 420 302 c 0
 324 302 237 249 181 169 c 1
 99 227 l 1
 173 333 289 402 417 402 c 0
EndSplineSet
EndChar

StartChar: sym068
Encoding: 149 -1 149
Width: 588
Flags: W
VStem: 167 100<127.21 335.059>
LayerCount: 2
Back
Fore
SplineSet
167 226 m 0
 167 350 226 450 311 529 c 1
 227 537 l 1
 235 636 l 1
 502 613 l 1
 479 346 l 1
 379 355 l 1
 389 465 l 1
 319 405 267 327 267 229 c 0
 267 134 320 47 400 -9 c 1
 342 -91 l 1
 236 -17 167 99 167 226 c 0
EndSplineSet
EndChar

StartChar: sym067
Encoding: 150 -1 150
Width: 930
Flags: W
HStem: 148 100<404.941 612.79>
LayerCount: 2
Back
Fore
SplineSet
514 148 m 0
 390 148 290 207 211 292 c 1
 203 208 l 1
 104 216 l 1
 127 483 l 1
 394 460 l 1
 385 360 l 1
 275 370 l 1
 335 300 413 248 511 248 c 0
 606 248 693 301 749 381 c 1
 831 323 l 1
 757 217 641 148 514 148 c 0
EndSplineSet
EndChar

StartChar: uni2938
Encoding: 151 10552 151
Width: 588
Flags: W
VStem: 321 100<214.941 422.79>
LayerCount: 2
Back
Fore
SplineSet
421 324 m 0
 421 200 362 100 277 21 c 1
 361 13 l 1
 353 -86 l 1
 86 -63 l 1
 109 204 l 1
 209 195 l 1
 199 85 l 1
 269 145 321 223 321 321 c 0
 321 416 268 503 188 559 c 1
 246 641 l 1
 352 567 421 451 421 324 c 0
EndSplineSet
EndChar

StartChar: sym06C
Encoding: 152 -1 152
Width: 999
Flags: W
HStem: 344 99<541.224 691.612>
VStem: 268 100<-2.36772 171.404>
LayerCount: 2
Back
Fore
SplineSet
886 367 m 1
 680 195 l 1
 616 271 l 1
 701 343 l 1
 689 344 678 344 666 344 c 0
 589 344 515 323 457 271 c 0
 397 217 368 139 368 58 c 0
 368 38 370 19 373 -1 c 1
 275 -18 l 1
 271 8 268 33 268 59 c 0
 268 166 307 269 387 342 c 0
 465 413 565 443 669 443 c 0
 677 443 684 442 692 442 c 1
 637 508 l 1
 713 572 l 1
 886 367 l 1
EndSplineSet
EndChar

StartChar: sym06B
Encoding: 153 -1 153
Width: 999
Flags: W
HStem: 43 101<603.028 776.547>
VStem: 332 99<316.817 466.886>
LayerCount: 2
Back
Fore
SplineSet
408 661 m 1
 580 456 l 1
 503 392 l 1
 432 476 l 1
 431 465 431 452 431 441 c 0
 431 364 451 291 503 233 c 0
 557 173 635 144 715 144 c 0
 735 144 755 145 775 149 c 1
 792 50 l 1
 767 46 741 43 716 43 c 0
 609 43 506 83 433 162 c 0
 361 240 332 341 332 445 c 0
 332 452 332 460 332 467 c 1
 267 412 l 1
 203 489 l 1
 408 661 l 1
EndSplineSet
EndChar

StartChar: uni2936
Encoding: 154 10550 154
Width: 999
Flags: W
HStem: 107 99<307.388 457.598>
VStem: 631 100<378.596 552.39>
LayerCount: 2
Back
Fore
SplineSet
113 183 m 1
 318 355 l 1
 383 279 l 1
 298 207 l 1
 310 206 321 206 333 206 c 0
 410 206 484 227 541 279 c 0
 602 333 631 411 631 492 c 0
 631 512 629 532 626 551 c 1
 724 568 l 1
 728 542 731 517 731 491 c 0
 731 384 692 281 612 208 c 0
 534 137 434 107 330 107 c 0
 322 107 315 108 307 108 c 1
 362 42 l 1
 285 -22 l 1
 113 183 l 1
EndSplineSet
EndChar

StartChar: uni2935
Encoding: 155 10549 155
Width: 999
Flags: W
HStem: 406 101<222.546 397.987>
VStem: 568 99<83.114 233.183>
LayerCount: 2
Back
Fore
SplineSet
591 -111 m 1
 419 94 l 1
 496 158 l 1
 567 74 l 1
 568 85 568 98 568 109 c 0
 568 186 548 259 496 317 c 0
 442 377 364 406 284 406 c 0
 264 406 244 405 224 401 c 1
 206 500 l 1
 231 504 257 507 282 507 c 0
 389 507 493 467 566 388 c 0
 638 310 667 209 667 105 c 0
 667 98 667 90 667 83 c 1
 732 138 l 1
 796 61 l 1
 591 -111 l 1
EndSplineSet
EndChar

StartChar: uni293B
Encoding: 156 10555 156
Width: 930
Flags: W
HStem: 148 100<317.53 525.552>
LayerCount: 2
Back
Fore
SplineSet
719 292 m 1
 640 207 540 148 417 148 c 0
 289 148 173 217 99 323 c 1
 181 381 l 1
 237 301 324 248 420 248 c 0
 518 248 595 300 655 370 c 1
 545 360 l 1
 536 460 l 1
 803 483 l 1
 826 216 l 1
 727 208 l 1
 719 292 l 1
EndSplineSet
EndChar

StartChar: sym06A
Encoding: 157 -1 157
Width: 588
Flags: W
VStem: 321 100<127.21 335.059>
LayerCount: 2
Back
Fore
SplineSet
277 529 m 1
 362 450 421 350 421 226 c 0
 421 99 352 -17 246 -91 c 1
 188 -9 l 1
 268 47 321 134 321 229 c 0
 321 327 269 405 199 465 c 1
 209 355 l 1
 109 346 l 1
 86 613 l 1
 353 636 l 1
 361 537 l 1
 277 529 l 1
EndSplineSet
EndChar

StartChar: uni293A
Encoding: 158 10554 158
Width: 930
Flags: W
HStem: 302 100<404.941 612.79>
LayerCount: 2
Back
Fore
SplineSet
211 258 m 1
 290 343 390 402 514 402 c 0
 641 402 757 333 831 227 c 1
 749 169 l 1
 693 249 606 302 511 302 c 0
 413 302 335 250 275 180 c 1
 385 190 l 1
 394 90 l 1
 127 67 l 1
 104 334 l 1
 203 342 l 1
 211 258 l 1
EndSplineSet
EndChar

StartChar: uni2939
Encoding: 159 10553 159
Width: 588
Flags: W
VStem: 167 100<214.941 422.79>
LayerCount: 2
Back
Fore
SplineSet
311 21 m 1
 226 100 167 200 167 324 c 0
 167 451 236 567 342 641 c 1
 400 559 l 1
 320 503 267 416 267 321 c 0
 267 223 319 145 389 85 c 1
 379 195 l 1
 479 204 l 1
 502 -63 l 1
 235 -86 l 1
 227 13 l 1
 311 21 l 1
EndSplineSet
EndChar

StartChar: uni2934
Encoding: 160 10548 160
Width: 999
Flags: W
HStem: 43 101<222.546 397.987>
VStem: 568 99<316.817 466.886>
LayerCount: 2
Back
Fore
SplineSet
591 661 m 1
 796 489 l 1
 732 412 l 1
 667 467 l 1
 667 460 667 452 667 445 c 0
 667 341 638 240 566 162 c 0
 493 83 389 43 282 43 c 0
 257 43 231 46 206 50 c 1
 224 149 l 1
 244 145 264 144 284 144 c 0
 364 144 442 173 496 233 c 0
 548 291 568 364 568 441 c 0
 568 452 568 465 567 476 c 1
 496 392 l 1
 419 456 l 1
 591 661 l 1
EndSplineSet
EndChar

StartChar: sym06D
Encoding: 161 -1 161
Width: 999
Flags: W
HStem: 344 99<307.388 457.598>
VStem: 631 100<-2.39043 171.404>
LayerCount: 2
Back
Fore
SplineSet
113 367 m 1
 285 572 l 1
 362 508 l 1
 307 442 l 1
 315 442 322 443 330 443 c 0
 434 443 534 413 612 342 c 0
 692 269 731 166 731 59 c 0
 731 33 728 8 724 -18 c 1
 626 -1 l 1
 629 18 631 38 631 58 c 0
 631 139 602 217 541 271 c 0
 484 323 410 344 333 344 c 0
 321 344 310 344 298 343 c 1
 383 271 l 1
 318 195 l 1
 113 367 l 1
EndSplineSet
EndChar

StartChar: sym06E
Encoding: 162 -1 162
Width: 999
Flags: W
HStem: 406 101<603.028 776.547>
VStem: 332 99<83.114 233.183>
LayerCount: 2
Back
Fore
SplineSet
408 -111 m 1
 203 61 l 1
 267 138 l 1
 332 83 l 1
 332 90 332 98 332 105 c 0
 332 209 361 310 433 388 c 0
 506 467 609 507 716 507 c 0
 741 507 767 504 792 500 c 1
 775 401 l 1
 755 405 735 406 715 406 c 0
 635 406 557 377 503 317 c 0
 451 259 431 186 431 109 c 0
 431 98 431 85 432 74 c 1
 503 158 l 1
 580 94 l 1
 408 -111 l 1
EndSplineSet
EndChar

StartChar: uni2937
Encoding: 163 10551 163
Width: 999
Flags: W
HStem: 107 99<541.224 691.612>
VStem: 268 100<378.596 552.368>
LayerCount: 2
Back
Fore
SplineSet
886 183 m 1
 713 -22 l 1
 637 42 l 1
 692 108 l 1
 684 108 677 107 669 107 c 0
 565 107 465 137 387 208 c 0
 307 281 268 384 268 491 c 0
 268 517 271 542 275 568 c 1
 373 551 l 1
 370 531 368 512 368 492 c 0
 368 411 397 333 457 279 c 0
 515 227 589 206 666 206 c 0
 678 206 689 206 701 207 c 1
 616 279 l 1
 680 355 l 1
 886 183 l 1
EndSplineSet
EndChar

StartChar: sym06F
Encoding: 164 -1 164
Width: 1080
Flags: W
HStem: 302 100<428.384 651.616>
LayerCount: 2
Back
Fore
SplineSet
945 67 m 1
 679 90 l 1
 687 190 l 1
 795 180 l 1
 728 253 639 302 540 302 c 0
 441 302 352 253 285 180 c 1
 393 190 l 1
 401 90 l 1
 135 67 l 1
 111 334 l 1
 211 342 l 1
 218 255 l 1
 303 344 416 402 540 402 c 0
 664 402 777 344 862 255 c 1
 869 342 l 1
 969 334 l 1
 945 67 l 1
EndSplineSet
EndChar

StartChar: sym070
Encoding: 165 -1 165
Width: 588
Flags: W
VStem: 167 100<163.384 386.616>
LayerCount: 2
Back
Fore
SplineSet
502 680 m 1
 479 414 l 1
 379 422 l 1
 389 530 l 1
 316 463 267 374 267 275 c 0
 267 176 316 87 389 20 c 1
 379 128 l 1
 479 136 l 1
 502 -130 l 1
 235 -154 l 1
 227 -54 l 1
 314 -47 l 1
 225 38 167 151 167 275 c 0
 167 399 225 512 314 597 c 1
 227 604 l 1
 235 704 l 1
 502 680 l 1
EndSplineSet
EndChar

StartChar: sym071
Encoding: 166 -1 166
Width: 1080
Flags: W
HStem: 148 100<428.384 651.616>
LayerCount: 2
Back
Fore
SplineSet
135 483 m 1
 401 460 l 1
 393 360 l 1
 285 370 l 1
 352 297 441 248 540 248 c 0
 639 248 728 297 795 370 c 1
 687 360 l 1
 679 460 l 1
 945 483 l 1
 969 216 l 1
 869 208 l 1
 862 295 l 1
 777 206 664 148 540 148 c 0
 416 148 303 206 218 295 c 1
 211 208 l 1
 111 216 l 1
 135 483 l 1
EndSplineSet
EndChar

StartChar: sym072
Encoding: 167 -1 167
Width: 588
Flags: W
VStem: 321 100<163.384 386.616>
LayerCount: 2
Back
Fore
SplineSet
86 -130 m 1
 109 136 l 1
 209 128 l 1
 199 20 l 1
 272 87 321 176 321 275 c 0
 321 374 272 463 199 530 c 1
 209 422 l 1
 109 414 l 1
 86 680 l 1
 353 704 l 1
 361 604 l 1
 274 597 l 1
 363 512 421 399 421 275 c 0
 421 151 363 38 274 -47 c 1
 361 -54 l 1
 353 -154 l 1
 86 -130 l 1
EndSplineSet
EndChar

StartChar: sym074
Encoding: 168 -1 168
Width: 1105
Flags: W
HStem: 389 100<650.697 794>
VStem: 338 100<34 176.816>
LayerCount: 2
Back
Fore
SplineSet
986 415 m 1
 781 242 l 1
 717 319 l 1
 799 388 l 1
 793 388 786 389 780 389 c 0
 688 389 599 360 533 294 c 0
 467 228 438 140 438 48 c 0
 438 41 439 35 439 28 c 1
 508 111 l 1
 585 46 l 1
 413 -159 l 1
 208 13 l 1
 272 90 l 1
 339 34 l 1
 339 38 338 42 338 46 c 0
 338 165 377 280 463 365 c 0
 548 450 662 489 781 489 c 0
 785 489 790 488 794 488 c 1
 738 555 l 1
 814 620 l 1
 986 415 l 1
EndSplineSet
EndChar

StartChar: sym073
Encoding: 169 -1 169
Width: 1105
Flags: W
HStem: 61 100<650.697 794> 689 20G<389.163 429.78>
VStem: 338 100<373.184 516>
LayerCount: 2
Back
Fore
SplineSet
413 709 m 1
 585 504 l 1
 508 439 l 1
 439 522 l 1
 439 515 438 509 438 502 c 0
 438 410 467 322 533 256 c 0
 599 190 688 161 780 161 c 0
 786 161 793 162 799 162 c 1
 717 231 l 1
 781 308 l 1
 986 135 l 1
 814 -70 l 1
 738 -5 l 1
 794 62 l 1
 790 62 785 61 781 61 c 0
 662 61 548 100 463 185 c 0
 377 270 338 385 338 504 c 0
 338 508 339 512 339 516 c 1
 272 460 l 1
 208 537 l 1
 413 709 l 1
EndSplineSet
EndChar

StartChar: sym076
Encoding: 170 -1 170
Width: 1105
Flags: W
HStem: 61 100<311 454.303> 689 20G<675.22 715.837>
VStem: 667 99<373.174 516>
LayerCount: 2
Back
Fore
SplineSet
119 135 m 1
 324 308 l 1
 388 231 l 1
 305 162 l 1
 312 162 318 161 325 161 c 0
 417 161 506 190 572 256 c 0
 638 322 667 410 667 502 c 0
 667 509 666 516 666 523 c 1
 596 439 l 1
 520 504 l 1
 692 709 l 1
 897 537 l 1
 833 460 l 1
 766 516 l 1
 766 511 766 507 766 502 c 0
 766 384 727 269 642 185 c 0
 557 100 443 61 324 61 c 0
 320 61 315 62 311 62 c 1
 367 -5 l 1
 291 -70 l 1
 119 135 l 1
EndSplineSet
EndChar

StartChar: sym075
Encoding: 171 -1 171
Width: 1105
Flags: W
HStem: 389 100<311 454.303>
VStem: 667 99<34 176.826>
LayerCount: 2
Back
Fore
SplineSet
692 -159 m 1
 520 46 l 1
 596 111 l 1
 666 27 l 1
 666 34 667 41 667 48 c 0
 667 140 638 228 572 294 c 0
 506 360 417 389 325 389 c 0
 318 389 312 388 305 388 c 1
 388 319 l 1
 324 242 l 1
 119 415 l 1
 291 620 l 1
 367 555 l 1
 311 488 l 1
 315 488 320 489 324 489 c 0
 443 489 557 450 642 365 c 0
 727 281 766 166 766 48 c 0
 766 43 766 39 766 34 c 1
 833 90 l 1
 897 13 l 1
 692 -159 l 1
EndSplineSet
EndChar

StartChar: sym077
Encoding: 172 -1 172
Width: 930
Flags: W
HStem: 225 100<190 840>
VStem: 90 100<71 225 325 479>
LayerCount: 2
Back
Fore
SplineSet
190 71 m 1
 90 71 l 1
 90 479 l 1
 190 479 l 1
 190 325 l 1
 840 325 l 1
 840 225 l 1
 190 225 l 1
 190 71 l 1
EndSplineSet
EndChar

StartChar: sym078
Encoding: 173 -1 173
Width: 930
Flags: W
HStem: 225 100<90 740>
VStem: 740 100<71 225 325 479>
LayerCount: 2
Back
Fore
SplineSet
740 479 m 1
 840 479 l 1
 840 71 l 1
 740 71 l 1
 740 225 l 1
 90 225 l 1
 90 325 l 1
 740 325 l 1
 740 479 l 1
EndSplineSet
EndChar

StartChar: sym079
Encoding: 174 -1 174
Width: 1260
Flags: W
HStem: -212 100<504.698 755.302> 662 100<504.698 755.302>
VStem: 143 100<149.698 400.302> 1011 99<358.727 418.743>
LayerCount: 2
Back
Fore
SplineSet
1091 263 m 1
 1182 12 l 1
 1088 -23 l 1
 1062 49 l 1
 1039 5 1010 -35 975 -70 c 0
 883 -161 759 -212 630 -212 c 0
 501 -212 377 -161 285 -70 c 0
 194 22 143 146 143 275 c 0
 143 404 194 528 285 620 c 0
 377 711 501 762 630 762 c 0
 759 762 883 711 975 620 c 0
 1045 549 1093 458 1110 360 c 1
 1011 342 l 1
 998 421 960 493 904 549 c 0
 831 621 733 662 630 662 c 0
 527 662 429 622 356 549 c 0
 283 476 243 378 243 275 c 0
 243 172 283 74 356 1 c 0
 429 -72 527 -112 630 -112 c 0
 733 -112 831 -71 904 1 c 0
 938 35 965 74 984 118 c 1
 873 78 l 1
 839 172 l 1
 1091 263 l 1
EndSplineSet
EndChar

StartChar: uni21BA
Encoding: 175 8634 175
Width: 1260
Flags: W
HStem: -212 100<504.698 755.302> 656 99<486.257 546.273>
VStem: 143 100<149.698 400.302> 1017 100<149.698 400.302>
LayerCount: 2
Back
Fore
SplineSet
642 736 m 1
 894 827 l 1
 928 733 l 1
 856 707 l 1
 900 684 940 655 975 620 c 0
 1066 528 1117 404 1117 275 c 0
 1117 146 1066 22 975 -70 c 0
 883 -161 759 -212 630 -212 c 0
 501 -212 377 -161 285 -70 c 0
 194 22 143 146 143 275 c 0
 143 404 194 528 285 620 c 0
 356 690 447 738 545 755 c 1
 563 656 l 1
 484 643 412 605 356 549 c 0
 284 476 243 378 243 275 c 0
 243 172 283 74 356 1 c 0
 429 -72 527 -112 630 -112 c 0
 733 -112 831 -72 904 1 c 0
 977 74 1017 172 1017 275 c 0
 1017 378 976 476 904 549 c 0
 870 583 831 610 787 629 c 1
 827 518 l 1
 733 484 l 1
 642 736 l 1
EndSplineSet
EndChar

StartChar: uni27F2
Encoding: 176 10226 176
Width: 1260
Flags: W
HStem: -212 100<504.698 755.302> 662 100<504.698 755.302>
VStem: 150 99<131.257 191.273> 1017 100<149.698 400.302>
LayerCount: 2
Back
Fore
SplineSet
169 287 m 1
 78 538 l 1
 172 573 l 1
 198 501 l 1
 221 545 250 585 285 620 c 0
 377 711 501 762 630 762 c 0
 759 762 883 711 975 620 c 0
 1066 528 1117 404 1117 275 c 0
 1117 146 1066 22 975 -70 c 0
 883 -161 759 -212 630 -212 c 0
 501 -212 377 -161 285 -70 c 0
 215 1 167 92 150 190 c 1
 249 208 l 1
 262 129 300 57 356 1 c 0
 429 -71 527 -112 630 -112 c 0
 733 -112 831 -72 904 1 c 0
 977 74 1017 172 1017 275 c 0
 1017 378 977 476 904 549 c 0
 831 622 733 662 630 662 c 0
 527 662 429 621 356 549 c 0
 322 515 295 476 276 432 c 1
 387 472 l 1
 421 378 l 1
 169 287 l 1
EndSplineSet
EndChar

StartChar: sym07C
Encoding: 177 -1 177
Width: 1260
Flags: W
HStem: -205 99<713.727 773.743> 662 100<504.698 755.302>
VStem: 143 100<149.698 400.302> 1017 100<149.698 400.302>
LayerCount: 2
Back
Fore
SplineSet
618 -186 m 1
 367 -277 l 1
 332 -183 l 1
 404 -157 l 1
 360 -134 320 -105 285 -70 c 0
 194 22 143 146 143 275 c 0
 143 404 194 528 285 620 c 0
 377 711 501 762 630 762 c 0
 759 762 883 711 975 620 c 0
 1066 528 1117 404 1117 275 c 0
 1117 146 1066 22 975 -70 c 0
 904 -140 813 -188 715 -205 c 1
 697 -106 l 1
 776 -93 848 -55 904 1 c 0
 976 74 1017 172 1017 275 c 0
 1017 378 977 476 904 549 c 0
 831 622 733 662 630 662 c 0
 527 662 429 622 356 549 c 0
 283 476 243 378 243 275 c 0
 243 172 284 74 356 1 c 0
 390 -33 429 -60 473 -79 c 1
 433 32 l 1
 527 66 l 1
 618 -186 l 1
EndSplineSet
EndChar

StartChar: uni27F3
Encoding: 178 10227 178
Width: 1260
Flags: W
HStem: -212 100<504.698 755.302> 662 100<504.698 755.302>
VStem: 143 100<149.698 400.302> 1011 99<131.257 191.273>
LayerCount: 2
Back
Fore
SplineSet
1091 287 m 1
 839 378 l 1
 873 472 l 1
 984 432 l 1
 965 476 938 515 904 549 c 0
 831 621 733 662 630 662 c 0
 527 662 429 622 356 549 c 0
 283 476 243 378 243 275 c 0
 243 172 283 74 356 1 c 0
 429 -72 527 -112 630 -112 c 0
 733 -112 831 -71 904 1 c 0
 960 57 998 129 1011 208 c 1
 1110 190 l 1
 1093 92 1045 1 975 -70 c 0
 883 -161 759 -212 630 -212 c 0
 501 -212 377 -161 285 -70 c 0
 194 22 143 146 143 275 c 0
 143 404 194 528 285 620 c 0
 377 711 501 762 630 762 c 0
 759 762 883 711 975 620 c 0
 1010 585 1039 545 1062 501 c 1
 1088 573 l 1
 1182 538 l 1
 1091 287 l 1
EndSplineSet
EndChar

StartChar: uni21BB
Encoding: 179 8635 179
Width: 1260
Flags: W
HStem: -212 100<504.698 755.302> 656 99<713.727 773.743>
VStem: 143 100<149.698 400.302> 1017 100<149.698 400.302>
LayerCount: 2
Back
Fore
SplineSet
618 736 m 1
 527 484 l 1
 433 518 l 1
 473 629 l 1
 429 610 390 583 356 549 c 0
 284 476 243 378 243 275 c 0
 243 172 283 74 356 1 c 0
 429 -72 527 -112 630 -112 c 0
 733 -112 831 -72 904 1 c 0
 977 74 1017 172 1017 275 c 0
 1017 378 976 476 904 549 c 0
 848 605 776 643 697 656 c 1
 715 755 l 1
 813 738 904 690 975 620 c 0
 1066 528 1117 404 1117 275 c 0
 1117 146 1066 22 975 -70 c 0
 883 -161 759 -212 630 -212 c 0
 501 -212 377 -161 285 -70 c 0
 194 22 143 146 143 275 c 0
 143 404 194 528 285 620 c 0
 320 655 360 684 404 707 c 1
 332 733 l 1
 367 827 l 1
 618 736 l 1
EndSplineSet
EndChar

StartChar: sym07A
Encoding: 180 -1 180
Width: 1260
Flags: W
HStem: -212 100<504.698 755.302> 662 100<504.698 755.302>
VStem: 150 99<358.727 418.743> 1017 100<149.698 400.302>
LayerCount: 2
Back
Fore
SplineSet
169 263 m 1
 421 172 l 1
 387 78 l 1
 276 118 l 1
 295 74 322 35 356 1 c 0
 429 -71 527 -112 630 -112 c 0
 733 -112 831 -72 904 1 c 0
 977 74 1017 172 1017 275 c 0
 1017 378 977 476 904 549 c 0
 831 622 733 662 630 662 c 0
 527 662 429 621 356 549 c 0
 300 493 262 421 249 342 c 1
 150 360 l 1
 167 458 215 549 285 620 c 0
 377 711 501 762 630 762 c 0
 759 762 883 711 975 620 c 0
 1066 528 1117 404 1117 275 c 0
 1117 146 1066 22 975 -70 c 0
 883 -161 759 -212 630 -212 c 0
 501 -212 377 -161 285 -70 c 0
 250 -35 221 5 198 49 c 1
 172 -23 l 1
 78 12 l 1
 169 263 l 1
EndSplineSet
EndChar

StartChar: sym07B
Encoding: 181 -1 181
Width: 1260
Flags: W
HStem: -205 99<486.257 546.273> 662 100<504.698 755.302>
VStem: 143 100<149.698 400.302> 1017 100<149.698 400.302>
LayerCount: 2
Back
Fore
SplineSet
642 -186 m 1
 733 66 l 1
 827 32 l 1
 787 -79 l 1
 831 -60 870 -33 904 1 c 0
 976 74 1017 172 1017 275 c 0
 1017 378 977 476 904 549 c 0
 831 622 733 662 630 662 c 0
 527 662 429 622 356 549 c 0
 283 476 243 378 243 275 c 0
 243 172 284 74 356 1 c 0
 412 -55 484 -93 563 -106 c 1
 545 -205 l 1
 447 -188 356 -140 285 -70 c 0
 194 22 143 146 143 275 c 0
 143 404 194 528 285 620 c 0
 377 711 501 762 630 762 c 0
 759 762 883 711 975 620 c 0
 1066 528 1117 404 1117 275 c 0
 1117 146 1066 22 975 -70 c 0
 940 -105 900 -134 856 -157 c 1
 928 -183 l 1
 894 -277 l 1
 642 -186 l 1
EndSplineSet
EndChar

StartChar: uni21DB
Encoding: 182 8667 182
Width: 1080
Flags: W
HStem: 107 80<90 702> 235 80<90 829> 363 80<90 702>
CounterMasks: 1 e0
LayerCount: 2
Back
Fore
SplineSet
1011 275 m 1
 744 9 l 1
 674 79 l 1
 702 107 l 1
 90 107 l 1
 90 187 l 1
 781 187 l 1
 829 235 l 1
 90 235 l 1
 90 315 l 1
 829 315 l 1
 781 363 l 1
 90 363 l 1
 90 443 l 1
 702 443 l 1
 674 471 l 1
 744 541 l 1
 1011 275 l 1
EndSplineSet
EndChar

StartChar: uni290A
Encoding: 183 10506 183
Width: 711
Flags: W
VStem: 187 80<-175 436> 316 80<-175 564> 444 80<-175 436>
LayerCount: 2
Back
Fore
SplineSet
356 746 m 1
 622 479 l 1
 551 409 l 1
 524 436 l 1
 524 -175 l 1
 444 -175 l 1
 444 516 l 1
 396 564 l 1
 396 -175 l 1
 316 -175 l 1
 316 564 l 1
 267 515 l 1
 267 -175 l 1
 187 -175 l 1
 187 436 l 1
 160 409 l 1
 89 479 l 1
 356 746 l 1
EndSplineSet
EndChar

StartChar: uni21DA
Encoding: 184 8666 184
Width: 1080
Flags: W
HStem: 107 80<378 990> 235 80<251 990> 363 80<378 990>
CounterMasks: 1 e0
LayerCount: 2
Back
Fore
SplineSet
69 275 m 1
 336 541 l 1
 406 471 l 1
 378 443 l 1
 990 443 l 1
 990 363 l 1
 299 363 l 1
 251 315 l 1
 990 315 l 1
 990 235 l 1
 251 235 l 1
 299 187 l 1
 990 187 l 1
 990 107 l 1
 378 107 l 1
 406 79 l 1
 336 9 l 1
 69 275 l 1
EndSplineSet
EndChar

StartChar: uni290B
Encoding: 185 10507 185
Width: 711
Flags: W
VStem: 187 80<114 725> 316 80<-14 725> 444 80<114 725>
LayerCount: 2
Back
Fore
SplineSet
356 -196 m 1
 89 71 l 1
 160 141 l 1
 187 114 l 1
 187 725 l 1
 267 725 l 1
 267 35 l 1
 316 -14 l 1
 316 725 l 1
 396 725 l 1
 396 -14 l 1
 444 34 l 1
 444 725 l 1
 524 725 l 1
 524 114 l 1
 551 141 l 1
 622 71 l 1
 356 -196 l 1
EndSplineSet
EndChar

StartChar: uni27F6
Encoding: 186 10230 186
Width: 1680
Flags: W
HStem: 225 100<90 1419>
LayerCount: 2
Back
Fore
SplineSet
1611 275 m 1
 1421 86 l 1
 1351 156 l 1
 1419 225 l 1
 90 225 l 1
 90 325 l 1
 1419 325 l 1
 1351 394 l 1
 1421 464 l 1
 1611 275 l 1
EndSplineSet
EndChar

StartChar: uni27F5
Encoding: 187 10229 187
Width: 1680
Flags: W
HStem: 225 100<261 1590>
LayerCount: 2
Back
Fore
SplineSet
69 275 m 1
 259 464 l 1
 329 394 l 1
 261 325 l 1
 1590 325 l 1
 1590 225 l 1
 261 225 l 1
 329 156 l 1
 259 86 l 1
 69 275 l 1
EndSplineSet
EndChar

StartChar: uni27F9
Encoding: 188 10233 188
Width: 1680
Flags: W
HStem: 129 100<90 1323> 321 100<90 1323>
LayerCount: 2
Back
Fore
SplineSet
1611 275 m 1
 1375 39 l 1
 1304 110 l 1
 1323 129 l 1
 90 129 l 1
 90 229 l 1
 1423 229 l 1
 1469 275 l 1
 1423 321 l 1
 90 321 l 1
 90 421 l 1
 1323 421 l 1
 1304 440 l 1
 1375 511 l 1
 1611 275 l 1
EndSplineSet
EndChar

StartChar: uni27F8
Encoding: 189 10232 189
Width: 1680
Flags: W
HStem: 129 100<357 1590> 321 100<357 1590>
LayerCount: 2
Back
Fore
SplineSet
69 275 m 1
 305 511 l 1
 376 440 l 1
 357 421 l 1
 1590 421 l 1
 1590 321 l 1
 257 321 l 1
 211 275 l 1
 257 229 l 1
 1590 229 l 1
 1590 129 l 1
 357 129 l 1
 376 110 l 1
 305 39 l 1
 69 275 l 1
EndSplineSet
EndChar

StartChar: uni27F7
Encoding: 190 10231 190
Width: 1680
Flags: W
HStem: 225 100<261 1419>
LayerCount: 2
Back
Fore
SplineSet
69 275 m 1
 259 464 l 1
 329 394 l 1
 261 325 l 1
 1419 325 l 1
 1351 394 l 1
 1421 464 l 1
 1611 275 l 1
 1421 86 l 1
 1351 156 l 1
 1419 225 l 1
 261 225 l 1
 329 156 l 1
 259 86 l 1
 69 275 l 1
EndSplineSet
EndChar

StartChar: uni27FA
Encoding: 191 10234 191
Width: 1680
Flags: W
HStem: 129 100<357 1323> 321 100<357 1323>
LayerCount: 2
Back
Fore
SplineSet
1423 321 m 1
 257 321 l 1
 211 275 l 1
 257 229 l 1
 1423 229 l 1
 1469 275 l 1
 1423 321 l 1
69 275 m 1
 305 511 l 1
 376 440 l 1
 357 421 l 1
 1323 421 l 1
 1304 440 l 1
 1375 511 l 1
 1611 275 l 1
 1375 39 l 1
 1304 110 l 1
 1323 129 l 1
 357 129 l 1
 376 110 l 1
 305 39 l 1
 69 275 l 1
EndSplineSet
EndChar

StartChar: uni27FC
Encoding: 192 10236 192
Width: 1680
Flags: W
HStem: 225 100<190 1419>
VStem: 90 100<71 225 325 479>
LayerCount: 2
Back
Fore
SplineSet
1611 275 m 1
 1421 86 l 1
 1351 156 l 1
 1419 225 l 1
 190 225 l 1
 190 71 l 1
 90 71 l 1
 90 479 l 1
 190 479 l 1
 190 325 l 1
 1419 325 l 1
 1351 394 l 1
 1421 464 l 1
 1611 275 l 1
EndSplineSet
EndChar

StartChar: uni27FB
Encoding: 193 10235 193
Width: 1680
Flags: W
HStem: 225 100<261 1490>
VStem: 1490 100<71 225 325 479>
LayerCount: 2
Back
Fore
SplineSet
69 275 m 1
 259 464 l 1
 329 394 l 1
 261 325 l 1
 1490 325 l 1
 1490 479 l 1
 1590 479 l 1
 1590 71 l 1
 1490 71 l 1
 1490 225 l 1
 261 225 l 1
 329 156 l 1
 259 86 l 1
 69 275 l 1
EndSplineSet
EndChar

StartChar: uni27FE
Encoding: 194 10238 194
Width: 1680
Flags: W
HStem: 129 100<190 1323> 321 100<190 1323>
VStem: 90 100<25 129 229 321 421 525>
LayerCount: 2
Back
Fore
SplineSet
190 321 m 1
 190 229 l 1
 1423 229 l 1
 1469 275 l 1
 1423 321 l 1
 190 321 l 1
1611 275 m 1
 1375 39 l 1
 1304 110 l 1
 1323 129 l 1
 190 129 l 1
 190 25 l 1
 90 25 l 1
 90 525 l 1
 190 525 l 1
 190 421 l 1
 1323 421 l 1
 1304 440 l 1
 1375 511 l 1
 1611 275 l 1
EndSplineSet
EndChar

StartChar: uni27FD
Encoding: 195 10237 195
Width: 1680
Flags: W
HStem: 129 100<357 1490> 321 100<357 1490>
VStem: 1490 100<25 129 229 321 421 525>
LayerCount: 2
Back
Fore
SplineSet
1490 229 m 1
 1490 321 l 1
 257 321 l 1
 211 275 l 1
 257 229 l 1
 1490 229 l 1
69 275 m 1
 305 511 l 1
 376 440 l 1
 357 421 l 1
 1490 421 l 1
 1490 525 l 1
 1590 525 l 1
 1590 25 l 1
 1490 25 l 1
 1490 129 l 1
 357 129 l 1
 376 110 l 1
 305 39 l 1
 69 275 l 1
EndSplineSet
EndChar

StartChar: uni27FF
Encoding: 196 10239 196
Width: 1680
Flags: W
HStem: 148 100<431.193 500.112 821.645 890.807 1212.39 1274.15> 225 100<1350.55 1419> 302 100<226.645 304.609 626.391 695.609 1017.19 1086.31>
LayerCount: 2
Back
Fore
SplineSet
1611 275 m 1x40
 1421 86 l 1
 1351 156 l 1
 1419 225 l 1
 1377 225 l 2x40
 1364 225 1357 211 1347 201 c 0
 1320 173 1286 148 1247 148 c 0
 1187 148 1143 197 1108 246 c 0
 1092 270 1080 302 1052 302 c 0
 1023 302 1011 270 995 246 c 0
 960 197 916 148 856 148 c 0
 796 148 752 197 718 246 c 0
 701 270 690 302 661 302 c 0
 632 302 621 270 604 246 c 0
 569 197 525 148 466 148 c 0
 406 148 362 197 327 246 c 0
 310 270 299 302 270 302 c 0
 223 302 208 246 181 208 c 1
 99 265 l 1
 144 330 193 402 270 402 c 0
 330 402 374 353 409 304 c 0
 425 280 437 248 466 248 c 0
 494 248 506 280 522 304 c 0
 557 353 601 402 661 402 c 0
 721 402 765 353 800 304 c 0
 816 280 828 248 856 248 c 0
 885 248 897 280 913 304 c 0
 948 353 992 402 1052 402 c 0
 1112 402 1155 353 1190 304 c 0
 1207 280 1218 248 1247 248 c 0xa0
 1261 248 1267 262 1277 272 c 0
 1305 300 1338 325 1377 325 c 2
 1419 325 l 1
 1351 394 l 1
 1421 464 l 1
 1611 275 l 1x40
EndSplineSet
EndChar

StartChar: uni2B33
Encoding: 197 11059 197
Width: 1680
Flags: W
HStem: 148 100<405.915 467.609 789.193 858.355 1179.89 1248.81> 225 100<261 329.446> 302 100<593.695 662.807 984.391 1053.61 1375.39 1453.35>
LayerCount: 2
Back
Fore
SplineSet
69 275 m 1x40
 259 464 l 1
 329 394 l 1
 261 325 l 1
 303 325 l 2x40
 342 325 375 300 403 272 c 0
 413 262 419 248 433 248 c 0
 462 248 473 280 490 304 c 0
 525 353 568 402 628 402 c 0
 688 402 732 353 767 304 c 0
 783 280 795 248 824 248 c 0
 852 248 864 280 880 304 c 0
 915 353 959 402 1019 402 c 0
 1079 402 1123 353 1158 304 c 0
 1174 280 1186 248 1214 248 c 0
 1243 248 1255 280 1271 304 c 0
 1306 353 1350 402 1410 402 c 0
 1487 402 1536 330 1581 265 c 1
 1499 208 l 1
 1472 246 1457 302 1410 302 c 0
 1381 302 1370 270 1353 246 c 0
 1318 197 1274 148 1214 148 c 0
 1155 148 1111 197 1076 246 c 0
 1059 270 1048 302 1019 302 c 0
 990 302 979 270 962 246 c 0
 928 197 884 148 824 148 c 0
 764 148 720 197 685 246 c 0
 669 270 657 302 628 302 c 0
 600 302 588 270 572 246 c 0
 537 197 493 148 433 148 c 0xa0
 394 148 361 173 333 201 c 0
 323 211 316 225 303 225 c 2
 261 225 l 1
 329 156 l 1
 259 86 l 1
 69 275 l 1x40
EndSplineSet
EndChar

StartChar: uni27DD
Encoding: 198 10205 198
Width: 1680
Flags: W
HStem: 225 100<190 1590>
VStem: 90 100<71 225 325 479>
LayerCount: 2
Back
Fore
SplineSet
190 71 m 1
 90 71 l 1
 90 479 l 1
 190 479 l 1
 190 325 l 1
 1590 325 l 1
 1590 225 l 1
 190 225 l 1
 190 71 l 1
EndSplineSet
EndChar

StartChar: uni27DE
Encoding: 199 10206 199
Width: 1680
Flags: W
HStem: 225 100<90 1490>
VStem: 1490 100<71 225 325 479>
LayerCount: 2
Back
Fore
SplineSet
1490 479 m 1
 1590 479 l 1
 1590 71 l 1
 1490 71 l 1
 1490 225 l 1
 90 225 l 1
 90 325 l 1
 1490 325 l 1
 1490 479 l 1
EndSplineSet
EndChar

StartChar: uni21B0
Encoding: 200 8624 200
Width: 691
Flags: W
HStem: 379 100<261 501>
VStem: 501 100<-83 379>
LayerCount: 2
Back
Fore
SplineSet
69 429 m 1
 259 618 l 1
 329 548 l 1
 261 479 l 1
 601 479 l 1
 601 -83 l 1
 501 -83 l 1
 501 379 l 1
 261 379 l 1
 329 310 l 1
 259 240 l 1
 69 429 l 1
EndSplineSet
EndChar

StartChar: uni21B1
Encoding: 201 8625 201
Width: 691
Flags: W
HStem: 379 100<190 430>
VStem: 90 100<-83 379>
LayerCount: 2
Back
Fore
SplineSet
621 429 m 1
 432 240 l 1
 361 310 l 1
 430 379 l 1
 190 379 l 1
 190 -83 l 1
 90 -83 l 1
 90 479 l 1
 430 479 l 1
 361 548 l 1
 432 618 l 1
 621 429 l 1
EndSplineSet
EndChar

StartChar: uni21B2
Encoding: 202 8626 202
Width: 691
Flags: W
HStem: 71 100<261 501>
VStem: 501 100<171 633>
LayerCount: 2
Back
Fore
SplineSet
69 121 m 1
 259 310 l 1
 329 240 l 1
 261 171 l 1
 501 171 l 1
 501 633 l 1
 601 633 l 1
 601 71 l 1
 261 71 l 1
 329 2 l 1
 259 -68 l 1
 69 121 l 1
EndSplineSet
EndChar

StartChar: uni21B3
Encoding: 203 8627 203
Width: 691
Flags: W
HStem: 71 100<190 430>
VStem: 90 100<171 633>
LayerCount: 2
Back
Fore
SplineSet
621 121 m 1
 432 -68 l 1
 361 2 l 1
 430 71 l 1
 90 71 l 1
 90 633 l 1
 190 633 l 1
 190 171 l 1
 430 171 l 1
 361 240 l 1
 432 310 l 1
 621 121 l 1
EndSplineSet
EndChar

StartChar: uni21AC
Encoding: 204 8620 204
Width: 930
Flags: W
HStem: 225 100<239.525 415 515 669> 550 100<238.427 366.955>
VStem: 90 100<373.427 501.955> 415 100<-100 225 325 501.011>
LayerCount: 2
Back
Fore
SplineSet
415 325 m 1
 415 438 l 2
 415 500 365 550 303 550 c 0
 240 550 190 500 190 438 c 0
 190 375 240 325 303 325 c 2
 415 325 l 1
861 275 m 1
 671 86 l 1
 601 156 l 1
 669 225 l 1
 515 225 l 1
 515 -100 l 1
 415 -100 l 1
 415 225 l 1
 303 225 l 2
 185 225 90 320 90 438 c 0
 90 555 185 650 303 650 c 0
 420 650 515 555 515 438 c 2
 515 325 l 1
 669 325 l 1
 601 394 l 1
 671 464 l 1
 861 275 l 1
EndSplineSet
EndChar

StartChar: uni21AB
Encoding: 205 8619 205
Width: 930
Flags: W
HStem: 225 100<261 415 515 691.011> 550 100<563.427 691.955>
VStem: 415 100<-100 225 325 501.011> 740 100<373.427 501.955>
LayerCount: 2
Back
Fore
SplineSet
515 325 m 1
 628 325 l 2
 690 325 740 375 740 438 c 0
 740 500 690 550 628 550 c 0
 565 550 515 500 515 438 c 2
 515 325 l 1
69 275 m 1
 259 464 l 1
 329 394 l 1
 261 325 l 1
 415 325 l 1
 415 438 l 2
 415 555 510 650 628 650 c 0
 745 650 840 555 840 438 c 0
 840 320 745 225 628 225 c 2
 515 225 l 1
 515 -100 l 1
 415 -100 l 1
 415 225 l 1
 261 225 l 1
 329 156 l 1
 259 86 l 1
 69 275 l 1
EndSplineSet
EndChar

StartChar: uni22A2
Encoding: 224 8866 206
Width: 840
Flags: W
HStem: 0 21G<90 190> 304 100<190 750> 687 20G<90 190>
VStem: 90 100<0 304 404 707>
LayerCount: 2
Back
Fore
SplineSet
190 0 m 1
 90 0 l 1
 90 707 l 1
 190 707 l 1
 190 404 l 1
 750 404 l 1
 750 304 l 1
 190 304 l 1
 190 0 l 1
EndSplineSet
EndChar

StartChar: uni22A5
Encoding: 225 8869 207
Width: 840
Flags: W
HStem: 0 100<90 370 470 750> 687 20G<370 470>
VStem: 370 100<100 707>
LayerCount: 2
Back
Fore
SplineSet
750 100 m 1
 750 0 l 1
 90 0 l 1
 90 100 l 1
 370 100 l 1
 370 707 l 1
 470 707 l 1
 470 100 l 1
 750 100 l 1
EndSplineSet
EndChar

StartChar: uni22A3
Encoding: 226 8867 208
Width: 840
Flags: W
HStem: 0 21G<650 750> 304 100<90 650> 687 20G<650 750>
VStem: 650 100<0 304 404 707>
LayerCount: 2
Back
Fore
SplineSet
650 707 m 1
 750 707 l 1
 750 0 l 1
 650 0 l 1
 650 304 l 1
 90 304 l 1
 90 404 l 1
 650 404 l 1
 650 707 l 1
EndSplineSet
EndChar

StartChar: uni22A4
Encoding: 227 8868 209
Width: 840
Flags: W
HStem: 0 21G<370 470> 607 100<90 370 470 750>
VStem: 370 100<0 607>
LayerCount: 2
Back
Fore
SplineSet
90 607 m 1
 90 707 l 1
 750 707 l 1
 750 607 l 1
 470 607 l 1
 470 0 l 1
 370 0 l 1
 370 607 l 1
 90 607 l 1
EndSplineSet
EndChar

StartChar: uni22A6
Encoding: 228 8870 210
Width: 642
Flags: W
HStem: 0 21G<90 190> 304 100<190 552> 687 20G<90 190>
VStem: 90 100<0 304 404 707>
LayerCount: 2
Back
Fore
SplineSet
190 0 m 1
 90 0 l 1
 90 707 l 1
 190 707 l 1
 190 404 l 1
 552 404 l 1
 552 304 l 1
 190 304 l 1
 190 0 l 1
EndSplineSet
EndChar

StartChar: uni2AE0
Encoding: 229 10976 211
Width: 840
Flags: W
HStem: 0 100<90 370 470 750>
VStem: 370 100<100 495>
LayerCount: 2
Back
Fore
SplineSet
750 100 m 1
 750 0 l 1
 90 0 l 1
 90 100 l 1
 370 100 l 1
 370 495 l 1
 470 495 l 1
 470 100 l 1
 750 100 l 1
EndSplineSet
EndChar

StartChar: uni2ADE
Encoding: 230 10974 212
Width: 642
Flags: W
HStem: 0 21G<452 552> 304 100<90 452> 687 20G<452 552>
VStem: 452 100<0 304 404 707>
LayerCount: 2
Back
Fore
SplineSet
452 707 m 1
 552 707 l 1
 552 0 l 1
 452 0 l 1
 452 304 l 1
 90 304 l 1
 90 404 l 1
 452 404 l 1
 452 707 l 1
EndSplineSet
EndChar

StartChar: uni2ADF
Encoding: 231 10975 213
Width: 840
Flags: W
HStem: 0 21G<370 470> 395 100<90 370 470 750>
VStem: 370 100<0 395>
LayerCount: 2
Back
Fore
SplineSet
90 395 m 1
 90 495 l 1
 750 495 l 1
 750 395 l 1
 470 395 l 1
 470 0 l 1
 370 0 l 1
 370 395 l 1
 90 395 l 1
EndSplineSet
EndChar

StartChar: uni22A8
Encoding: 232 8872 214
Width: 840
Flags: W
HStem: 0 21G<90 190> 207 100<190 750> 400 100<190 750> 687 20G<90 190>
VStem: 90 100<0 207 307 400 500 707>
LayerCount: 2
Back
Fore
SplineSet
190 0 m 1
 90 0 l 1
 90 707 l 1
 190 707 l 1
 190 500 l 1
 750 500 l 1
 750 400 l 1
 190 400 l 1
 190 307 l 1
 750 307 l 1
 750 207 l 1
 190 207 l 1
 190 0 l 1
EndSplineSet
EndChar

StartChar: uni2AEB
Encoding: 233 10987 215
Width: 840
Flags: W
HStem: 0 100<90 274 374 466 566 750> 687 20G<274 374 466 566>
VStem: 274 100<100 707> 466 100<100 707>
LayerCount: 2
Back
Fore
SplineSet
750 100 m 1
 750 0 l 1
 90 0 l 1
 90 100 l 1
 274 100 l 1
 274 707 l 1
 374 707 l 1
 374 100 l 1
 466 100 l 1
 466 707 l 1
 566 707 l 1
 566 100 l 1
 750 100 l 1
EndSplineSet
EndChar

StartChar: uni2AE4
Encoding: 234 10980 216
Width: 840
Flags: W
HStem: 0 21G<650 750> 207 100<90 650> 400 100<90 650> 687 20G<650 750>
VStem: 650 100<0 207 307 400 500 707>
LayerCount: 2
Back
Fore
SplineSet
650 707 m 1
 750 707 l 1
 750 0 l 1
 650 0 l 1
 650 207 l 1
 90 207 l 1
 90 307 l 1
 650 307 l 1
 650 400 l 1
 90 400 l 1
 90 500 l 1
 650 500 l 1
 650 707 l 1
EndSplineSet
EndChar

StartChar: uni2AEA
Encoding: 235 10986 217
Width: 840
Flags: W
HStem: 0 21G<274 374 466 566> 607 100<90 274 374 466 566 750>
VStem: 274 100<0 607> 466 100<0 607>
LayerCount: 2
Back
Fore
SplineSet
90 607 m 1
 90 707 l 1
 750 707 l 1
 750 607 l 1
 566 607 l 1
 566 0 l 1
 466 0 l 1
 466 607 l 1
 374 607 l 1
 374 0 l 1
 274 0 l 1
 274 607 l 1
 90 607 l 1
EndSplineSet
EndChar

StartChar: uni22A7
Encoding: 236 8871 218
Width: 642
Flags: W
HStem: 0 21G<90 190> 207 100<190 552> 400 100<190 552> 687 20G<90 190>
VStem: 90 100<0 207 307 400 500 707>
LayerCount: 2
Back
Fore
SplineSet
190 0 m 1
 90 0 l 1
 90 707 l 1
 190 707 l 1
 190 500 l 1
 552 500 l 1
 552 400 l 1
 190 400 l 1
 190 307 l 1
 552 307 l 1
 552 207 l 1
 190 207 l 1
 190 0 l 1
EndSplineSet
EndChar

StartChar: sym07E
Encoding: 237 -1 219
Width: 840
Flags: W
HStem: 0 100<90 274 374 466 566 750>
VStem: 274 100<100 495> 466 100<100 495>
LayerCount: 2
Back
Fore
SplineSet
750 100 m 1
 750 0 l 1
 90 0 l 1
 90 100 l 1
 274 100 l 1
 274 495 l 1
 374 495 l 1
 374 100 l 1
 466 100 l 1
 466 495 l 1
 566 495 l 1
 566 100 l 1
 750 100 l 1
EndSplineSet
EndChar

StartChar: sym07D
Encoding: 238 -1 220
Width: 642
Flags: W
HStem: 0 21G<452 552> 207 100<90 452> 400 100<90 452> 687 20G<452 552>
VStem: 452 100<0 207 307 400 500 707>
LayerCount: 2
Back
Fore
SplineSet
452 707 m 1
 552 707 l 1
 552 0 l 1
 452 0 l 1
 452 207 l 1
 90 207 l 1
 90 307 l 1
 452 307 l 1
 452 400 l 1
 90 400 l 1
 90 500 l 1
 452 500 l 1
 452 707 l 1
EndSplineSet
EndChar

StartChar: sym07F
Encoding: 239 -1 221
Width: 840
Flags: W
HStem: 0 21G<274 374 466 566> 395 100<90 274 374 466 566 750>
VStem: 274 100<0 395> 466 100<0 395>
LayerCount: 2
Back
Fore
SplineSet
90 395 m 1
 90 495 l 1
 750 495 l 1
 750 395 l 1
 566 395 l 1
 566 0 l 1
 466 0 l 1
 466 395 l 1
 374 395 l 1
 374 0 l 1
 274 0 l 1
 274 395 l 1
 90 395 l 1
EndSplineSet
EndChar

StartChar: uni22A9
Encoding: 240 8873 222
Width: 1038
Flags: W
HStem: 0 21G<90 190 288 388> 304 100<388 948> 687 20G<90 190 288 388>
VStem: 90 100<0 707> 288 100<0 304 404 707>
LayerCount: 2
Back
Fore
SplineSet
190 0 m 1
 90 0 l 1
 90 707 l 1
 190 707 l 1
 190 0 l 1
388 0 m 1
 288 0 l 1
 288 707 l 1
 388 707 l 1
 388 404 l 1
 948 404 l 1
 948 304 l 1
 388 304 l 1
 388 0 l 1
EndSplineSet
EndChar

StartChar: uni234A
Encoding: 241 9034 223
Width: 840
Flags: W
HStem: -106 100<90 750> 92 100<90 370 470 750>
VStem: 370 100<192 813>
LayerCount: 2
Back
Fore
SplineSet
750 -6 m 1
 750 -106 l 1
 90 -106 l 1
 90 -6 l 1
 750 -6 l 1
750 192 m 1
 750 92 l 1
 90 92 l 1
 90 192 l 1
 370 192 l 1
 370 813 l 1
 470 813 l 1
 470 192 l 1
 750 192 l 1
EndSplineSet
EndChar

StartChar: uni2AE3
Encoding: 242 10979 224
Width: 1038
Flags: W
HStem: 0 21G<650 750 848 948> 304 100<90 650> 687 20G<650 750 848 948>
VStem: 650 100<0 304 404 707> 848 100<0 707>
LayerCount: 2
Back
Fore
SplineSet
848 707 m 1
 948 707 l 1
 948 0 l 1
 848 0 l 1
 848 707 l 1
650 707 m 1
 750 707 l 1
 750 0 l 1
 650 0 l 1
 650 304 l 1
 90 304 l 1
 90 404 l 1
 650 404 l 1
 650 707 l 1
EndSplineSet
EndChar

StartChar: uni2351
Encoding: 243 9041 225
Width: 840
Flags: W
HStem: 515 100<90 370 470 750> 713 100<90 750>
VStem: 370 100<-106 515>
LayerCount: 2
Back
Fore
SplineSet
90 713 m 1
 90 813 l 1
 750 813 l 1
 750 713 l 1
 90 713 l 1
90 515 m 1
 90 615 l 1
 750 615 l 1
 750 515 l 1
 470 515 l 1
 470 -106 l 1
 370 -106 l 1
 370 515 l 1
 90 515 l 1
EndSplineSet
EndChar

StartChar: uni22A9.alt
Encoding: 244 -1 226
Width: 840
Flags: W
HStem: 0 21G<90 190 288 388> 304 100<388 750> 687 20G<90 190 288 388>
VStem: 90 100<0 707> 288 100<0 304 404 707>
LayerCount: 2
Back
Fore
SplineSet
190 0 m 1
 90 0 l 1
 90 707 l 1
 190 707 l 1
 190 0 l 1
388 0 m 1
 288 0 l 1
 288 707 l 1
 388 707 l 1
 388 404 l 1
 750 404 l 1
 750 304 l 1
 388 304 l 1
 388 0 l 1
EndSplineSet
EndChar

StartChar: uni2AE8
Encoding: 245 10984 227
Width: 840
Flags: W
HStem: 0 100<90 750> 198 100<90 370 470 750> 687 20G<370 470>
VStem: 370 100<298 707>
LayerCount: 2
Back
Fore
SplineSet
750 100 m 1
 750 0 l 1
 90 0 l 1
 90 100 l 1
 750 100 l 1
750 298 m 1
 750 198 l 1
 90 198 l 1
 90 298 l 1
 370 298 l 1
 370 707 l 1
 470 707 l 1
 470 298 l 1
 750 298 l 1
EndSplineSet
EndChar

StartChar: uni2AE3.alt
Encoding: 246 -1 228
Width: 840
Flags: W
HStem: 0 21G<452 552 650 750> 304 100<90 452> 687 20G<452 552 650 750>
VStem: 452 100<0 304 404 707> 650 100<0 707>
LayerCount: 2
Back
Fore
SplineSet
650 707 m 1
 750 707 l 1
 750 0 l 1
 650 0 l 1
 650 707 l 1
452 707 m 1
 552 707 l 1
 552 0 l 1
 452 0 l 1
 452 304 l 1
 90 304 l 1
 90 404 l 1
 452 404 l 1
 452 707 l 1
EndSplineSet
EndChar

StartChar: uni2AE7
Encoding: 247 10983 229
Width: 840
Flags: W
HStem: 0 21G<370 470> 409 100<90 370 470 750> 607 100<90 750>
VStem: 370 100<0 409>
LayerCount: 2
Back
Fore
SplineSet
90 607 m 1
 90 707 l 1
 750 707 l 1
 750 607 l 1
 90 607 l 1
90 409 m 1
 90 509 l 1
 750 509 l 1
 750 409 l 1
 470 409 l 1
 470 0 l 1
 370 0 l 1
 370 409 l 1
 90 409 l 1
EndSplineSet
EndChar

StartChar: uni22AB
Encoding: 248 8875 230
Width: 1038
Flags: W
HStem: 0 21G<90 190 288 388> 207 100<388 948> 400 100<388 948> 687 20G<90 190 288 388>
VStem: 90 100<0 707> 288 100<0 207 307 400 500 707>
LayerCount: 2
Back
Fore
SplineSet
190 0 m 1
 90 0 l 1
 90 707 l 1
 190 707 l 1
 190 0 l 1
388 0 m 1
 288 0 l 1
 288 707 l 1
 388 707 l 1
 388 500 l 1
 948 500 l 1
 948 400 l 1
 388 400 l 1
 388 307 l 1
 948 307 l 1
 948 207 l 1
 388 207 l 1
 388 0 l 1
EndSplineSet
EndChar

StartChar: sym080
Encoding: 249 -1 231
Width: 840
Flags: W
HStem: -106 100<90 750> 92 100<90 274 374 466 566 750>
VStem: 274 100<192 813> 466 100<192 813>
LayerCount: 2
Back
Fore
SplineSet
750 -6 m 1
 750 -106 l 1
 90 -106 l 1
 90 -6 l 1
 750 -6 l 1
750 192 m 1
 750 92 l 1
 90 92 l 1
 90 192 l 1
 274 192 l 1
 274 813 l 1
 374 813 l 1
 374 192 l 1
 466 192 l 1
 466 813 l 1
 566 813 l 1
 566 192 l 1
 750 192 l 1
EndSplineSet
EndChar

StartChar: uni2AE5
Encoding: 250 10981 232
Width: 1038
Flags: W
HStem: 0 21G<650 750 848 948> 207 100<90 650> 400 100<90 650> 687 20G<650 750 848 948>
VStem: 650 100<0 207 307 400 500 707> 848 100<0 707>
LayerCount: 2
Back
Fore
SplineSet
848 707 m 1
 948 707 l 1
 948 0 l 1
 848 0 l 1
 848 707 l 1
650 707 m 1
 750 707 l 1
 750 0 l 1
 650 0 l 1
 650 207 l 1
 90 207 l 1
 90 307 l 1
 650 307 l 1
 650 400 l 1
 90 400 l 1
 90 500 l 1
 650 500 l 1
 650 707 l 1
EndSplineSet
EndChar

StartChar: sym081
Encoding: 251 -1 233
Width: 840
Flags: W
HStem: 515 100<90 274 374 466 566 750> 713 100<90 750>
VStem: 274 100<-106 515> 466 100<-106 515>
LayerCount: 2
Back
Fore
SplineSet
90 713 m 1
 90 813 l 1
 750 813 l 1
 750 713 l 1
 90 713 l 1
90 515 m 1
 90 615 l 1
 750 615 l 1
 750 515 l 1
 566 515 l 1
 566 -106 l 1
 466 -106 l 1
 466 515 l 1
 374 515 l 1
 374 -106 l 1
 274 -106 l 1
 274 515 l 1
 90 515 l 1
EndSplineSet
EndChar

StartChar: uni22AA
Encoding: 252 8874 234
Width: 1038
Flags: W
HStem: 0 21G<90 190 288 388 486 586> 304 100<586 948> 687 20G<90 190 288 388 486 586>
VStem: 90 100<0 707> 288 100<0 707> 486 100<0 304 404 707>
CounterMasks: 1 1c
LayerCount: 2
Back
Fore
SplineSet
190 0 m 1
 90 0 l 1
 90 707 l 1
 190 707 l 1
 190 0 l 1
388 0 m 1
 288 0 l 1
 288 707 l 1
 388 707 l 1
 388 0 l 1
586 0 m 1
 486 0 l 1
 486 707 l 1
 586 707 l 1
 586 404 l 1
 948 404 l 1
 948 304 l 1
 586 304 l 1
 586 0 l 1
EndSplineSet
EndChar

StartChar: sym082
Encoding: 253 -1 235
Width: 1038
Flags: W
HStem: 0 21G<452 552 650 750 848 948> 304 100<90 452> 687 20G<452 552 650 750 848 948>
VStem: 452 100<0 304 404 707> 650 100<0 707> 848 100<0 707>
CounterMasks: 1 1c
LayerCount: 2
Back
Fore
SplineSet
848 707 m 1
 948 707 l 1
 948 0 l 1
 848 0 l 1
 848 707 l 1
650 707 m 1
 750 707 l 1
 750 0 l 1
 650 0 l 1
 650 707 l 1
452 707 m 1
 552 707 l 1
 552 0 l 1
 452 0 l 1
 452 304 l 1
 90 304 l 1
 90 404 l 1
 452 404 l 1
 452 707 l 1
EndSplineSet
EndChar

StartChar: uni2AE2
Encoding: 254 10978 236
Width: 840
Flags: W
HStem: 0 21G<90 190> 111 100<190 750> 304 100<190 750> 496 100<190 750> 687 20G<90 190>
VStem: 90 100<0 111 211 304 404 496 596 707>
LayerCount: 2
Back
Fore
SplineSet
190 0 m 1
 90 0 l 1
 90 707 l 1
 190 707 l 1
 190 596 l 1
 750 596 l 1
 750 496 l 1
 190 496 l 1
 190 404 l 1
 750 404 l 1
 750 304 l 1
 190 304 l 1
 190 211 l 1
 750 211 l 1
 750 111 l 1
 190 111 l 1
 190 0 l 1
EndSplineSet
EndChar

StartChar: sym083
Encoding: 255 -1 237
Width: 840
Flags: W
HStem: 0 21G<650 750> 111 100<90 650> 304 100<90 650> 496 100<90 650> 687 20G<650 750>
VStem: 650 100<0 111 211 304 404 496 596 707>
LayerCount: 2
Back
Fore
SplineSet
650 707 m 1
 750 707 l 1
 750 0 l 1
 650 0 l 1
 650 111 l 1
 90 111 l 1
 90 211 l 1
 650 211 l 1
 650 304 l 1
 90 304 l 1
 90 404 l 1
 650 404 l 1
 650 496 l 1
 90 496 l 1
 90 596 l 1
 650 596 l 1
 650 707 l 1
EndSplineSet
EndChar
